<?xml version="1.0" encoding="utf-8" ?>
<svg baseProfile="tiny" height="100%" version="1.2" viewBox="-422,-118,1266,572" width="100%" xmlns="http://www.w3.org/2000/svg" xmlns:ev="http://www.w3.org/2001/xml-events" xmlns:xlink="http://www.w3.org/1999/xlink"><defs /><g transform="translate(-48,48)"><line stroke="black" stroke-linecap="round" stroke-width="3.0" x1="0" x2="0" y1="80" y2="48" /><line stroke="black" stroke-linecap="round" stroke-width="3.0" x1="0" x2="0" y1="80" y2="48" /><line stroke="black" stroke-linecap="round" stroke-width="3.0" x1="0" x2="0" y1="32" y2="0" /><line stroke="black" stroke-linecap="round" stroke-width="3.0" x1="-20" x2="20" y1="48" y2="48" /><line stroke="black" stroke-linecap="round" stroke-width="3.0" x1="-20" x2="20" y1="32" y2="32" /></g><g transform="translate(64,48)"><line stroke="black" stroke-linecap="round" stroke-width="3.0" x1="0" x2="0" y1="80" y2="56" /><line stroke="black" stroke-linecap="round" stroke-width="3.0" x1="0" x2="0" y1="80" y2="56" /><line stroke="black" stroke-linecap="round" stroke-width="3.0" x1="0" x2="0" y1="24" y2="0" /><line stroke="black" stroke-linecap="round" stroke-width="3.0" x1="-20" x2="20" y1="56" y2="56" /><line stroke="black" stroke-linecap="round" stroke-width="3.0" x1="-20" x2="20" y1="24" y2="24" /><line stroke="black" stroke-linecap="round" stroke-width="3.0" x1="-20" x2="0" y1="24" y2="56" /><line stroke="black" stroke-linecap="round" stroke-width="3.0" x1="0" x2="20" y1="56" y2="24" /></g><g transform="translate(64,304)"><line stroke="black" stroke-linecap="round" stroke-width="3.0" x1="0" x2="0" y1="16" y2="0" /><line stroke="black" stroke-linecap="round" stroke-width="3.0" x1="-16" x2="16" y1="16" y2="16" /><line stroke="black" stroke-linecap="round" stroke-width="3.0" x1="16" x2="0" y1="16" y2="32" /><line stroke="black" stroke-linecap="round" stroke-width="3.0" x1="0" x2="-16" y1="32" y2="16" /></g><g transform="translate(-48,240)"><line stroke="black" stroke-linecap="round" stroke-width="3.0" x1="0" x2="0" y1="96" y2="80" /><line stroke="black" stroke-linecap="round" stroke-width="3.0" x1="0" x2="0" y1="96" y2="80" /><line stroke="black" stroke-linecap="round" stroke-width="3.0" x1="0" x2="0" y1="16" y2="0" /><line stroke="black" stroke-linecap="round" stroke-width="3.0" x1="-4" x2="4" y1="56" y2="56" /><line stroke="black" stroke-linecap="round" stroke-width="3.0" x1="4" x2="0" y1="56" y2="68" /><line stroke="black" stroke-linecap="round" stroke-width="3.0" x1="0" x2="-4" y1="68" y2="56" /><line stroke="black" stroke-linecap="round" stroke-width="3.0" x1="-4" x2="0" y1="56" y2="56" /><line stroke="black" stroke-linecap="round" stroke-width="3.0" x1="0" x2="0" y1="56" y2="28" /><circle cx="0.0" cy="48.0" fill="none" r="32.0" stroke="black" stroke-width="3.0" /></g><g transform="translate(176,304)"><line stroke="black" stroke-linecap="round" stroke-width="3.0" x1="64" x2="64" y1="-32" y2="-48" /><line stroke="black" stroke-linecap="round" stroke-width="3.0" x1="24" x2="24" y1="32" y2="-32" /><line stroke="black" stroke-linecap="round" stroke-width="3.0" x1="64" x2="32" y1="-32" y2="-32" /><line stroke="black" stroke-linecap="round" stroke-width="3.0" x1="64" x2="64" y1="48" y2="32" /><line stroke="black" stroke-linecap="round" stroke-width="3.0" x1="64" x2="64" y1="-48" y2="-48" /><line stroke="black" stroke-linecap="round" stroke-width="3.0" x1="32" x2="32" y1="32" y2="-32" /><line stroke="black" stroke-linecap="round" stroke-width="3.0" x1="48" x2="64" y1="28" y2="32" /><line stroke="black" stroke-linecap="round" stroke-width="3.0" x1="48" x2="48" y1="36" y2="28" /><line stroke="black" stroke-linecap="round" stroke-width="3.0" x1="64" x2="48" y1="32" y2="36" /><line stroke="black" stroke-linecap="round" stroke-width="3.0" x1="32" x2="48" y1="32" y2="32" /><line stroke="black" stroke-linecap="round" stroke-width="3.0" x1="64" x2="64" y1="64" y2="48" /><line stroke="black" stroke-linecap="round" stroke-width="3.0" x1="64" x2="64" y1="64" y2="48" /><line stroke="black" stroke-linecap="round" stroke-width="3.0" x1="0" x2="24" y1="0" y2="0" /><line stroke="black" stroke-linecap="round" stroke-width="3.0" x1="64" x2="64" y1="-64" y2="-48" /></g><g transform="translate(-272,64)"><line stroke="black" stroke-linecap="round" stroke-width="3.0" x1="0" x2="-8" y1="0" y2="0" /><circle cx="-16.0" cy="0.0" fill="none" r="8.0" stroke="black" stroke-width="3.0" /></g><g transform="translate(-272,128)"><line stroke="black" stroke-linecap="round" stroke-width="3.0" x1="0" x2="-8" y1="0" y2="0" /><line stroke="black" stroke-linecap="round" stroke-width="3.0" x1="-8" x2="-24" y1="-12" y2="12" /><circle cx="-16.0" cy="0.0" fill="none" r="8.0" stroke="black" stroke-width="3.0" /></g><g transform="translate(320,304)"><line stroke="black" stroke-linecap="round" stroke-width="3.0" x1="64" x2="64" y1="-32" y2="-48" /><line stroke="black" stroke-linecap="round" stroke-width="3.0" x1="24" x2="24" y1="32" y2="-32" /><line stroke="black" stroke-linecap="round" stroke-width="3.0" x1="64" x2="32" y1="32" y2="32" /><line stroke="black" stroke-linecap="round" stroke-width="3.0" x1="64" x2="64" y1="48" y2="32" /><line stroke="black" stroke-linecap="round" stroke-width="3.0" x1="64" x2="64" y1="-48" y2="-48" /><line stroke="black" stroke-linecap="round" stroke-width="3.0" x1="32" x2="32" y1="32" y2="-32" /><line stroke="black" stroke-linecap="round" stroke-width="3.0" x1="48" x2="32" y1="-28" y2="-32" /><line stroke="black" stroke-linecap="round" stroke-width="3.0" x1="48" x2="48" y1="-36" y2="-28" /><line stroke="black" stroke-linecap="round" stroke-width="3.0" x1="32" x2="48" y1="-32" y2="-36" /><line stroke="black" stroke-linecap="round" stroke-width="3.0" x1="64" x2="48" y1="-32" y2="-32" /><line stroke="black" stroke-linecap="round" stroke-width="3.0" x1="64" x2="64" y1="64" y2="48" /><line stroke="black" stroke-linecap="round" stroke-width="3.0" x1="64" x2="64" y1="64" y2="48" /><line stroke="black" stroke-linecap="round" stroke-width="3.0" x1="0" x2="24" y1="0" y2="0" /><line stroke="black" stroke-linecap="round" stroke-width="3.0" x1="64" x2="64" y1="-64" y2="-48" /></g><g transform="translate(-160,48)"><line stroke="black" stroke-linecap="round" stroke-width="3.0" x1="0" x2="0" y1="80" y2="64" /><line stroke="black" stroke-linecap="round" stroke-width="3.0" x1="0" x2="0" y1="80" y2="64" /><line stroke="black" stroke-linecap="round" stroke-width="3.0" x1="0" x2="16" y1="16" y2="20" /><line stroke="black" stroke-linecap="round" stroke-width="3.0" x1="16" x2="-16" y1="20" y2="28" /><line stroke="black" stroke-linecap="round" stroke-width="3.0" x1="-16" x2="16" y1="28" y2="36" /><line stroke="black" stroke-linecap="round" stroke-width="3.0" x1="16" x2="-16" y1="36" y2="44" /><line stroke="black" stroke-linecap="round" stroke-width="3.0" x1="-16" x2="16" y1="44" y2="52" /><line stroke="black" stroke-linecap="round" stroke-width="3.0" x1="16" x2="-16" y1="52" y2="60" /><line stroke="black" stroke-linecap="round" stroke-width="3.0" x1="-16" x2="0" y1="60" y2="64" /><line stroke="black" stroke-linecap="round" stroke-width="3.0" x1="0" x2="0" y1="16" y2="0" /></g><g transform="translate(-160,240)"><line stroke="black" stroke-linecap="round" stroke-width="3.0" x1="0" x2="0" y1="96" y2="80" /><line stroke="black" stroke-linecap="round" stroke-width="3.0" x1="0" x2="0" y1="96" y2="80" /><line stroke="black" stroke-linecap="round" stroke-width="3.0" x1="0" x2="0" y1="16" y2="0" /><line stroke="black" stroke-linecap="round" stroke-width="3.0" x1="-8" x2="8" y1="32" y2="32" /><line stroke="black" stroke-linecap="round" stroke-width="3.0" x1="-8" x2="8" y1="64" y2="64" /><line stroke="black" stroke-linecap="round" stroke-width="3.0" x1="0" x2="0" y1="24" y2="40" /><circle cx="0.0" cy="48.0" fill="none" r="32.0" stroke="black" stroke-width="3.0" /></g><g transform="translate(64,256)"><line stroke="black" stroke-linecap="round" stroke-width="3.0" x1="0" x2="0" y1="0" y2="-16" /><line stroke="black" stroke-linecap="round" stroke-width="3.0" x1="-16" x2="16" y1="-16" y2="-16" /></g><text fill="black" font-family="Arial" font-size="22.5px" text-anchor="middle" x="64" y="30.75">Diode</text><text fill="black" font-family="Arial" font-size="22.5px" text-anchor="middle" x="384" y="214.75">PMOS</text><text fill="black" font-family="Arial" font-size="22.5px" text-anchor="middle" x="240" y="214.75">NMOS</text><text fill="black" font-family="Arial" font-size="22.5px" text-anchor="middle" x="64" y="214.75">VDD</text><text fill="black" font-family="Arial" font-size="22.5px" text-anchor="middle" x="64" y="374.75">GND</text><text fill="black" font-family="Arial" font-size="22.5px" text-anchor="middle" x="-48" y="214.75">I_DC</text><text fill="black" font-family="Arial" font-size="22.5px" text-anchor="middle" x="-160" y="214.75">V_DC</text><text fill="black" font-family="Arial" font-size="22.5px" text-anchor="middle" x="-160" y="30.75">Resistor</text><text fill="black" font-family="Arial" font-size="22.5px" text-anchor="middle" x="-48" y="30.75">Capacitor</text><text fill="black" font-family="Arial" font-size="22.5px" text-anchor="start" x="744" y="326.75">Left</text><text fill="black" font-family="Arial" font-size="22.5px" text-anchor="middle" x="688" y="326.75">Center</text><text fill="black" font-family="Arial" font-size="22.5px" text-anchor="end" x="632" y="326.75">Right</text><text fill="black" font-family="Arial" font-size="22.5px" text-anchor="middle" x="688" y="349.5">Top</text><text fill="black" font-family="Arial" font-size="22.5px" text-anchor="middle" x="688" y="304.0">Bottom</text><text fill="black" font-family="Arial" font-size="9.375px" text-anchor="start" x="552" y="-45.1875">A</text><text fill="black" font-family="Arial" font-size="15.0px" text-anchor="start" x="552" y="-27.5">A</text><text fill="black" font-family="Arial" font-size="22.5px" text-anchor="start" x="552" y="-9.25">A</text><text fill="black" font-family="Arial" font-size="30.0px" text-anchor="start" x="552" y="9.0">A</text><text fill="black" font-family="Arial" font-size="37.5px" text-anchor="start" x="552" y="43.25">A</text><text fill="black" font-family="Arial" font-size="52.5px" text-anchor="start" x="552" y="87.75">A</text><text fill="black" font-family="Arial" font-size="75.0px" text-anchor="start" x="552" y="134.5">A</text><text fill="black" font-family="Arial" font-size="105.0px" text-anchor="start" x="552" y="207.5">A</text></svg>