<?xml version="1.0" encoding="utf-8" ?>
<svg baseProfile="tiny" height="100%" version="1.2" viewBox="-582,-118,1426,828" width="100%" xmlns="http://www.w3.org/2000/svg" xmlns:ev="http://www.w3.org/2001/xml-events" xmlns:xlink="http://www.w3.org/1999/xlink"><defs /><line stroke="black" stroke-linecap="round" stroke-width="3.0" x1="-64" x2="-176" y1="480" y2="480" /><line stroke="black" stroke-linecap="round" stroke-width="3.0" x1="-176" x2="-176" y1="512" y2="480" /><line stroke="black" stroke-linecap="round" stroke-width="3.0" x1="-64" x2="-64" y1="512" y2="480" /><line stroke="black" stroke-linecap="round" stroke-width="3.0" x1="-176" x2="-176" y1="640" y2="592" /><line stroke="black" stroke-linecap="round" stroke-width="3.0" x1="-64" x2="-64" y1="640" y2="576" /><line stroke="black" stroke-linecap="round" stroke-width="3.0" x1="-64" x2="-176" y1="640" y2="640" /><g transform="translate(-48,48)"><line stroke="black" stroke-linecap="round" stroke-width="3.0" x1="0" x2="0" y1="80" y2="48" /><line stroke="black" stroke-linecap="round" stroke-width="3.0" x1="0" x2="0" y1="80" y2="48" /><line stroke="black" stroke-linecap="round" stroke-width="3.0" x1="0" x2="0" y1="32" y2="0" /><line stroke="black" stroke-linecap="round" stroke-width="3.0" x1="-20" x2="20" y1="48" y2="48" /><line stroke="black" stroke-linecap="round" stroke-width="3.0" x1="-20" x2="20" y1="32" y2="32" /></g><g transform="translate(64,48)"><line stroke="black" stroke-linecap="round" stroke-width="3.0" x1="0" x2="0" y1="80" y2="56" /><line stroke="black" stroke-linecap="round" stroke-width="3.0" x1="0" x2="0" y1="80" y2="56" /><line stroke="black" stroke-linecap="round" stroke-width="3.0" x1="0" x2="0" y1="24" y2="0" /><line stroke="black" stroke-linecap="round" stroke-width="3.0" x1="-20" x2="20" y1="56" y2="56" /><line stroke="black" stroke-linecap="round" stroke-width="3.0" x1="-20" x2="20" y1="24" y2="24" /><line stroke="black" stroke-linecap="round" stroke-width="3.0" x1="-20" x2="0" y1="24" y2="56" /><line stroke="black" stroke-linecap="round" stroke-width="3.0" x1="0" x2="20" y1="56" y2="24" /></g><g transform="translate(64,304)"><line stroke="black" stroke-linecap="round" stroke-width="3.0" x1="0" x2="0" y1="16" y2="0" /><line stroke="black" stroke-linecap="round" stroke-width="3.0" x1="-16" x2="16" y1="16" y2="16" /><line stroke="black" stroke-linecap="round" stroke-width="3.0" x1="16" x2="0" y1="16" y2="32" /><line stroke="black" stroke-linecap="round" stroke-width="3.0" x1="0" x2="-16" y1="32" y2="16" /></g><g transform="translate(-48,240)"><line stroke="black" stroke-linecap="round" stroke-width="3.0" x1="0" x2="0" y1="96" y2="80" /><line stroke="black" stroke-linecap="round" stroke-width="3.0" x1="0" x2="0" y1="96" y2="80" /><line stroke="black" stroke-linecap="round" stroke-width="3.0" x1="0" x2="0" y1="16" y2="0" /><line stroke="black" stroke-linecap="round" stroke-width="3.0" x1="-4" x2="4" y1="56" y2="56" /><line stroke="black" stroke-linecap="round" stroke-width="3.0" x1="4" x2="0" y1="56" y2="68" /><line stroke="black" stroke-linecap="round" stroke-width="3.0" x1="0" x2="-4" y1="68" y2="56" /><line stroke="black" stroke-linecap="round" stroke-width="3.0" x1="-4" x2="0" y1="56" y2="56" /><line stroke="black" stroke-linecap="round" stroke-width="3.0" x1="0" x2="0" y1="56" y2="28" /><circle cx="0.0" cy="48.0" fill="none" r="32.0" stroke="black" stroke-width="3.0" /></g><g transform="translate(176,304)"><line stroke="black" stroke-linecap="round" stroke-width="3.0" x1="64" x2="64" y1="-32" y2="-48" /><line stroke="black" stroke-linecap="round" stroke-width="3.0" x1="24" x2="24" y1="32" y2="-32" /><line stroke="black" stroke-linecap="round" stroke-width="3.0" x1="64" x2="32" y1="-32" y2="-32" /><line stroke="black" stroke-linecap="round" stroke-width="3.0" x1="64" x2="64" y1="48" y2="32" /><line stroke="black" stroke-linecap="round" stroke-width="3.0" x1="64" x2="64" y1="-48" y2="-48" /><line stroke="black" stroke-linecap="round" stroke-width="3.0" x1="32" x2="32" y1="32" y2="-32" /><line stroke="black" stroke-linecap="round" stroke-width="3.0" x1="48" x2="64" y1="28" y2="32" /><line stroke="black" stroke-linecap="round" stroke-width="3.0" x1="48" x2="48" y1="36" y2="28" /><line stroke="black" stroke-linecap="round" stroke-width="3.0" x1="64" x2="48" y1="32" y2="36" /><line stroke="black" stroke-linecap="round" stroke-width="3.0" x1="32" x2="48" y1="32" y2="32" /><line stroke="black" stroke-linecap="round" stroke-width="3.0" x1="64" x2="64" y1="64" y2="48" /><line stroke="black" stroke-linecap="round" stroke-width="3.0" x1="64" x2="64" y1="64" y2="48" /><line stroke="black" stroke-linecap="round" stroke-width="3.0" x1="0" x2="24" y1="0" y2="0" /><line stroke="black" stroke-linecap="round" stroke-width="3.0" x1="64" x2="64" y1="-64" y2="-48" /></g><g transform="translate(-272,64)"><line stroke="black" stroke-linecap="round" stroke-width="3.0" x1="0" x2="-8" y1="0" y2="0" /><circle cx="-16.0" cy="0.0" fill="none" r="8.0" stroke="black" stroke-width="3.0" /></g><g transform="translate(-272,128)"><line stroke="black" stroke-linecap="round" stroke-width="3.0" x1="0" x2="-8" y1="0" y2="0" /><line stroke="black" stroke-linecap="round" stroke-width="3.0" x1="-8" x2="-24" y1="-12" y2="12" /><circle cx="-16.0" cy="0.0" fill="none" r="8.0" stroke="black" stroke-width="3.0" /></g><g transform="translate(320,304)"><line stroke="black" stroke-linecap="round" stroke-width="3.0" x1="64" x2="64" y1="-32" y2="-48" /><line stroke="black" stroke-linecap="round" stroke-width="3.0" x1="24" x2="24" y1="32" y2="-32" /><line stroke="black" stroke-linecap="round" stroke-width="3.0" x1="64" x2="32" y1="32" y2="32" /><line stroke="black" stroke-linecap="round" stroke-width="3.0" x1="64" x2="64" y1="48" y2="32" /><line stroke="black" stroke-linecap="round" stroke-width="3.0" x1="64" x2="64" y1="-48" y2="-48" /><line stroke="black" stroke-linecap="round" stroke-width="3.0" x1="32" x2="32" y1="32" y2="-32" /><line stroke="black" stroke-linecap="round" stroke-width="3.0" x1="48" x2="32" y1="-28" y2="-32" /><line stroke="black" stroke-linecap="round" stroke-width="3.0" x1="48" x2="48" y1="-36" y2="-28" /><line stroke="black" stroke-linecap="round" stroke-width="3.0" x1="32" x2="48" y1="-32" y2="-36" /><line stroke="black" stroke-linecap="round" stroke-width="3.0" x1="64" x2="48" y1="-32" y2="-32" /><line stroke="black" stroke-linecap="round" stroke-width="3.0" x1="64" x2="64" y1="64" y2="48" /><line stroke="black" stroke-linecap="round" stroke-width="3.0" x1="64" x2="64" y1="64" y2="48" /><line stroke="black" stroke-linecap="round" stroke-width="3.0" x1="0" x2="24" y1="0" y2="0" /><line stroke="black" stroke-linecap="round" stroke-width="3.0" x1="64" x2="64" y1="-64" y2="-48" /></g><g transform="translate(-160,48)"><line stroke="black" stroke-linecap="round" stroke-width="3.0" x1="0" x2="0" y1="80" y2="64" /><line stroke="black" stroke-linecap="round" stroke-width="3.0" x1="0" x2="0" y1="80" y2="64" /><line stroke="black" stroke-linecap="round" stroke-width="3.0" x1="0" x2="16" y1="16" y2="20" /><line stroke="black" stroke-linecap="round" stroke-width="3.0" x1="16" x2="-16" y1="20" y2="28" /><line stroke="black" stroke-linecap="round" stroke-width="3.0" x1="-16" x2="16" y1="28" y2="36" /><line stroke="black" stroke-linecap="round" stroke-width="3.0" x1="16" x2="-16" y1="36" y2="44" /><line stroke="black" stroke-linecap="round" stroke-width="3.0" x1="-16" x2="16" y1="44" y2="52" /><line stroke="black" stroke-linecap="round" stroke-width="3.0" x1="16" x2="-16" y1="52" y2="60" /><line stroke="black" stroke-linecap="round" stroke-width="3.0" x1="-16" x2="0" y1="60" y2="64" /><line stroke="black" stroke-linecap="round" stroke-width="3.0" x1="0" x2="0" y1="16" y2="0" /></g><g transform="translate(-160,240)"><line stroke="black" stroke-linecap="round" stroke-width="3.0" x1="0" x2="0" y1="96" y2="80" /><line stroke="black" stroke-linecap="round" stroke-width="3.0" x1="0" x2="0" y1="96" y2="80" /><line stroke="black" stroke-linecap="round" stroke-width="3.0" x1="0" x2="0" y1="16" y2="0" /><line stroke="black" stroke-linecap="round" stroke-width="3.0" x1="-8" x2="8" y1="32" y2="32" /><line stroke="black" stroke-linecap="round" stroke-width="3.0" x1="-8" x2="8" y1="64" y2="64" /><line stroke="black" stroke-linecap="round" stroke-width="3.0" x1="0" x2="0" y1="24" y2="40" /><circle cx="0.0" cy="48.0" fill="none" r="32.0" stroke="black" stroke-width="3.0" /></g><g transform="translate(64,256)"><line stroke="black" stroke-linecap="round" stroke-width="3.0" x1="0" x2="0" y1="0" y2="-16" /><line stroke="black" stroke-linecap="round" stroke-width="3.0" x1="-16" x2="16" y1="-16" y2="-16" /></g><g transform="translate(-176,496)"><line stroke="black" stroke-linecap="round" stroke-width="3.0" x1="-8" x2="8" y1="36" y2="36" /><line stroke="black" stroke-linecap="round" stroke-width="3.0" x1="-8" x2="8" y1="76" y2="76" /><line stroke="black" stroke-linecap="round" stroke-width="3.0" x1="0" x2="0" y1="28" y2="44" /><line stroke="black" stroke-linecap="round" stroke-width="3.0" x1="0" x2="0" y1="96" y2="88" /><line stroke="black" stroke-linecap="round" stroke-width="3.0" x1="0" x2="0" y1="16" y2="24" /><circle cx="0.0" cy="56.0" fill="none" r="32.0" stroke="black" stroke-width="3.0" /></g><g transform="translate(-80,512)"><line stroke="black" stroke-linecap="round" stroke-width="3.0" x1="16" x2="16" y1="36" y2="64" /><line stroke="black" stroke-linecap="round" stroke-width="3.0" x1="16" x2="16" y1="28" y2="0" /><line stroke="black" stroke-linecap="round" stroke-width="3.0" x1="0" x2="32" y1="28" y2="28" /><line stroke="black" stroke-linecap="round" stroke-width="3.0" x1="0" x2="32" y1="36" y2="36" /></g><g transform="translate(32,512)"><line stroke="black" stroke-linecap="round" stroke-width="3.0" x1="0" x2="32" y1="36" y2="36" /><line stroke="black" stroke-linecap="round" stroke-width="3.0" x1="0" x2="32" y1="44" y2="44" /><line stroke="black" stroke-linecap="round" stroke-width="3.0" x1="0" x2="32" y1="16" y2="16" /><line stroke="black" stroke-linecap="round" stroke-width="3.0" x1="32" x2="16" y1="16" y2="36" /><line stroke="black" stroke-linecap="round" stroke-width="3.0" x1="0" x2="16" y1="16" y2="36" /><line stroke="black" stroke-linecap="round" stroke-width="3.0" x1="16" x2="16" y1="0" y2="16" /><line stroke="black" stroke-linecap="round" stroke-width="3.0" x1="16" x2="16" y1="44" y2="64" /></g><g transform="translate(224,560)"><line stroke="black" stroke-linecap="round" stroke-width="3.0" x1="-96" x2="-56" y1="-64" y2="-64" /><line stroke="black" stroke-linecap="round" stroke-width="3.0" x1="-56" x2="-56" y1="-32" y2="-64" /><line stroke="black" stroke-linecap="round" stroke-width="3.0" x1="-56" x2="-56" y1="-8" y2="32" /><line stroke="black" stroke-linecap="round" stroke-width="3.0" x1="-96" x2="-56" y1="32" y2="32" /><line stroke="black" stroke-linecap="round" stroke-width="3.0" x1="-72" x2="-40" y1="-32" y2="-32" /><line stroke="black" stroke-linecap="round" stroke-width="3.0" x1="-56" x2="-40" y1="-8" y2="-32" /><line stroke="black" stroke-linecap="round" stroke-width="3.0" x1="-56" x2="-72" y1="-8" y2="-32" /><line stroke="black" stroke-linecap="round" stroke-width="3.0" x1="-72" x2="-40" y1="-8" y2="-8" /><line stroke="black" stroke-linecap="round" stroke-width="3.0" x1="96" x2="68" y1="-64" y2="-64" /><line stroke="black" stroke-linecap="round" stroke-width="3.0" x1="96" x2="72" y1="0" y2="0" /><line stroke="black" stroke-linecap="round" stroke-width="3.0" x1="40" x2="68" y1="-32" y2="-64" /><line stroke="black" stroke-linecap="round" stroke-width="3.0" x1="40" x2="60" y1="-32" y2="-12" /><line stroke="black" stroke-linecap="round" stroke-width="3.0" x1="40" x2="40" y1="-48" y2="-16" /><line stroke="black" stroke-linecap="round" stroke-width="3.0" x1="72" x2="56" y1="0" y2="-8" /><line stroke="black" stroke-linecap="round" stroke-width="3.0" x1="72" x2="64" y1="0" y2="-16" /><line stroke="black" stroke-linecap="round" stroke-width="3.0" x1="56" x2="64" y1="-8" y2="-16" /><line stroke="black" stroke-linecap="round" stroke-width="3.0" x1="40" x2="32" y1="-32" y2="-32" /><line stroke="black" stroke-linecap="round" stroke-width="3.0" x1="32" x2="32" y1="32" y2="-32" /><line stroke="black" stroke-linecap="round" stroke-width="3.0" x1="32" x2="96" y1="32" y2="32" /><line stroke="black" stroke-linecap="round" stroke-width="3.0" x1="24" x2="12" y1="-32" y2="-36" /><line stroke="black" stroke-linecap="round" stroke-width="3.0" x1="24" x2="20" y1="-32" y2="-44" /><line stroke="black" stroke-linecap="round" stroke-width="3.0" x1="20" x2="24" y1="-36" y2="-32" /><rect fill="none" height="128" stroke="black" stroke-width="3.0" width="192" x="-96" y="-80" /><path d="M -4.0,-32.0 A 12.0,12.0 0 0 1 18.73312629199899,-37.3665631459995" fill="none" stroke="black" stroke-width="3.0" /><path d="M -4.0,-32.0 A 12.0,12.0 0 0 1 -27.384199576606164,-28.20526680779794" fill="none" stroke="black" stroke-width="3.0" /></g><g transform="translate(-432,96)"><line stroke="black" stroke-linecap="round" stroke-width="3.0" x1="-64" x2="64" y1="-64" y2="-64" /><line stroke="black" stroke-dasharray="12.0,6.0" stroke-linecap="round" stroke-width="3.0" x1="64" x2="64" y1="-64" y2="64" /><line stroke="black" stroke-dasharray="0.003,6.0" stroke-linecap="round" stroke-width="3.0" x1="64" x2="-64" y1="64" y2="64" /><line stroke="black" stroke-dasharray="12.0,6.0,0.003,6.0" stroke-linecap="round" stroke-width="3.0" x1="-64" x2="-64" y1="64" y2="-64" /><circle cx="0.0" cy="0.0" fill="none" r="8.0" stroke="black" stroke-dasharray="12.0,6.0,0.003,6.0,0.003,6.0" stroke-width="3.0" /><rect fill="none" height="32" stroke="black" stroke-dasharray="0.003,6.0" stroke-width="3.0" width="32" x="-48" y="-48" /><rect fill="none" height="32" stroke="black" stroke-width="3.0" width="32" x="16" y="-48" /><path d="M -48.0,32.0 A 16.0,16.0 0 1 1 -32.0,48.0" fill="none" stroke="black" stroke-dasharray="0.003,6.0" stroke-width="3.0" /><path d="M 31.999999999999996,16.0 A 16.0,16.0 0 1 1 16.0,32.0" fill="none" stroke="black" stroke-width="3.0" /></g><text fill="black" font-family="Arial" font-size="24.0px" text-anchor="middle" x="64" y="31.2">Diode</text><text fill="black" font-family="Arial" font-size="24.0px" text-anchor="middle" x="384" y="215.2">PMOS</text><text fill="black" font-family="Arial" font-size="24.0px" text-anchor="middle" x="240" y="215.2">NMOS</text><text fill="black" font-family="Arial" font-size="24.0px" text-anchor="middle" x="64" y="215.2">VDD</text><text fill="black" font-family="Arial" font-size="24.0px" text-anchor="middle" x="64" y="375.2">GND</text><text fill="black" font-family="Arial" font-size="24.0px" text-anchor="middle" x="-48" y="215.2">I_DC</text><text fill="black" font-family="Arial" font-size="24.0px" text-anchor="middle" x="-160" y="215.2">V_DC</text><text fill="black" font-family="Arial" font-size="24.0px" text-anchor="middle" x="-160" y="31.2">Resistor</text><text fill="black" font-family="Arial" font-size="24.0px" text-anchor="middle" x="-48" y="31.2">Capacitor</text><text fill="black" font-family="Arial" font-size="24.0px" text-anchor="start" x="744" y="327.2">Left</text><text fill="black" font-family="Arial" font-size="24.0px" text-anchor="middle" x="688" y="327.2">Center</text><text fill="black" font-family="Arial" font-size="24.0px" text-anchor="end" x="632" y="327.2">Right</text><text fill="black" font-family="Arial" font-size="24.0px" text-anchor="middle" x="688" y="350.4">Top</text><text fill="black" font-family="Arial" font-size="24.0px" text-anchor="middle" x="688" y="304.0">Bottom</text><text fill="black" font-family="Arial" font-size="10.0px" text-anchor="start" x="552" y="-45.0">A</text><text fill="black" font-family="Arial" font-size="16.0px" text-anchor="start" x="552" y="-27.2">A</text><text fill="black" font-family="Arial" font-size="24.0px" text-anchor="start" x="552" y="-8.8">A</text><text fill="black" font-family="Arial" font-size="32.0px" text-anchor="start" x="552" y="9.6">A</text><text fill="black" font-family="Arial" font-size="40.0px" text-anchor="start" x="552" y="44.0">A</text><text fill="black" font-family="Arial" font-size="56.0px" text-anchor="start" x="552" y="88.8">A</text><text fill="black" font-family="Arial" font-size="80.0px" text-anchor="start" x="552" y="136.0">A</text><text fill="black" font-family="Arial" font-size="112.0px" text-anchor="start" x="552" y="209.6">A</text></svg>