<?xml version="1.0" encoding="utf-8" ?>
<svg baseProfile="tiny" height="100%" version="1.2" viewBox="-358,-182,1506,988" width="100%" xmlns="http://www.w3.org/2000/svg" xmlns:ev="http://www.w3.org/2001/xml-events" xmlns:xlink="http://www.w3.org/1999/xlink"><defs /><line stroke="black" stroke-linecap="round" stroke-width="3.0" x1="-32" x2="-208" y1="16" y2="16" /><line stroke="black" stroke-linecap="round" stroke-width="3.0" x1="272" x2="-32" y1="16" y2="16" /><line stroke="black" stroke-linecap="round" stroke-width="3.0" x1="768" x2="768" y1="16" y2="-32" /><line stroke="black" stroke-linecap="round" stroke-width="3.0" x1="768" x2="272" y1="16" y2="16" /><line stroke="black" stroke-linecap="round" stroke-width="3.0" x1="-32" x2="-32" y1="64" y2="16" /><line stroke="black" stroke-linecap="round" stroke-width="3.0" x1="272" x2="272" y1="64" y2="16" /><line stroke="black" stroke-linecap="round" stroke-width="3.0" x1="768" x2="768" y1="64" y2="16" /><line stroke="black" stroke-linecap="round" stroke-width="3.0" x1="48" x2="32" y1="128" y2="128" /><line stroke="black" stroke-linecap="round" stroke-width="3.0" x1="208" x2="48" y1="128" y2="128" /><line stroke="black" stroke-linecap="round" stroke-width="3.0" x1="704" x2="208" y1="128" y2="128" /><line stroke="black" stroke-linecap="round" stroke-width="3.0" x1="-32" x2="-32" y1="224" y2="192" /><line stroke="black" stroke-linecap="round" stroke-width="3.0" x1="48" x2="48" y1="224" y2="128" /><line stroke="black" stroke-linecap="round" stroke-width="3.0" x1="48" x2="-32" y1="224" y2="224" /><line stroke="black" stroke-linecap="round" stroke-width="3.0" x1="272" x2="272" y1="224" y2="192" /><line stroke="black" stroke-linecap="round" stroke-width="3.0" x1="272" x2="176" y1="224" y2="224" /><line stroke="black" stroke-linecap="round" stroke-width="3.0" x1="368" x2="272" y1="224" y2="224" /><line stroke="black" stroke-linecap="round" stroke-width="3.0" x1="176" x2="176" y1="272" y2="224" /><line stroke="black" stroke-linecap="round" stroke-width="3.0" x1="368" x2="368" y1="272" y2="224" /><line stroke="black" stroke-linecap="round" stroke-width="3.0" x1="768" x2="768" y1="272" y2="192" /><line stroke="black" stroke-linecap="round" stroke-width="3.0" x1="784" x2="768" y1="272" y2="272" /><line stroke="black" stroke-linecap="round" stroke-width="3.0" x1="-208" x2="-208" y1="304" y2="16" /><line stroke="black" stroke-linecap="round" stroke-width="3.0" x1="112" x2="96" y1="336" y2="336" /><line stroke="black" stroke-linecap="round" stroke-width="3.0" x1="448" x2="432" y1="336" y2="336" /><line stroke="black" stroke-linecap="round" stroke-width="3.0" x1="528" x2="512" y1="384" y2="384" /><line stroke="black" stroke-linecap="round" stroke-width="3.0" x1="640" x2="608" y1="384" y2="384" /><line stroke="black" stroke-linecap="round" stroke-width="3.0" x1="768" x2="768" y1="384" y2="272" /><line stroke="black" stroke-linecap="round" stroke-width="3.0" x1="768" x2="720" y1="384" y2="384" /><line stroke="black" stroke-linecap="round" stroke-width="3.0" x1="-32" x2="-32" y1="400" y2="224" /><line stroke="black" stroke-linecap="round" stroke-width="3.0" x1="176" x2="176" y1="416" y2="400" /><line stroke="black" stroke-linecap="round" stroke-width="3.0" x1="272" x2="176" y1="416" y2="416" /><line stroke="black" stroke-linecap="round" stroke-width="3.0" x1="368" x2="368" y1="416" y2="400" /><line stroke="black" stroke-linecap="round" stroke-width="3.0" x1="464" x2="368" y1="416" y2="416" /><line stroke="black" stroke-linecap="round" stroke-width="3.0" x1="176" x2="176" y1="448" y2="416" /><line stroke="black" stroke-linecap="round" stroke-width="3.0" x1="368" x2="368" y1="448" y2="416" /><line stroke="black" stroke-linecap="round" stroke-width="3.0" x1="768" x2="768" y1="448" y2="384" /><line stroke="black" stroke-linecap="round" stroke-width="3.0" x1="272" x2="272" y1="512" y2="416" /><line stroke="black" stroke-linecap="round" stroke-width="3.0" x1="272" x2="240" y1="512" y2="512" /><line stroke="black" stroke-linecap="round" stroke-width="3.0" x1="304" x2="272" y1="512" y2="512" /><line stroke="black" stroke-linecap="round" stroke-width="3.0" x1="464" x2="464" y1="512" y2="416" /><line stroke="black" stroke-linecap="round" stroke-width="3.0" x1="512" x2="512" y1="512" y2="384" /><line stroke="black" stroke-linecap="round" stroke-width="3.0" x1="512" x2="464" y1="512" y2="512" /><line stroke="black" stroke-linecap="round" stroke-width="3.0" x1="704" x2="512" y1="512" y2="512" /><line stroke="black" stroke-linecap="round" stroke-width="3.0" x1="-208" x2="-208" y1="608" y2="400" /><line stroke="black" stroke-linecap="round" stroke-width="3.0" x1="-32" x2="-32" y1="608" y2="496" /><line stroke="black" stroke-linecap="round" stroke-width="3.0" x1="-32" x2="-208" y1="608" y2="608" /><line stroke="black" stroke-linecap="round" stroke-width="3.0" x1="176" x2="176" y1="608" y2="576" /><line stroke="black" stroke-linecap="round" stroke-width="3.0" x1="176" x2="-32" y1="608" y2="608" /><line stroke="black" stroke-linecap="round" stroke-width="3.0" x1="368" x2="368" y1="608" y2="576" /><line stroke="black" stroke-linecap="round" stroke-width="3.0" x1="368" x2="176" y1="608" y2="608" /><line stroke="black" stroke-linecap="round" stroke-width="3.0" x1="768" x2="768" y1="608" y2="576" /><line stroke="black" stroke-linecap="round" stroke-width="3.0" x1="768" x2="368" y1="608" y2="608" /><line stroke="black" stroke-linecap="round" stroke-width="3.0" x1="768" x2="768" y1="656" y2="608" /><circle cx="-32" cy="16" fill="black" r="4.5" stroke="none" /><circle cx="272" cy="16" fill="black" r="4.5" stroke="none" /><circle cx="768" cy="16" fill="black" r="4.5" stroke="none" /><circle cx="48" cy="128" fill="black" r="4.5" stroke="none" /><circle cx="-32" cy="224" fill="black" r="4.5" stroke="none" /><circle cx="272" cy="224" fill="black" r="4.5" stroke="none" /><circle cx="768" cy="272" fill="black" r="4.5" stroke="none" /><circle cx="768" cy="384" fill="black" r="4.5" stroke="none" /><circle cx="176" cy="416" fill="black" r="4.5" stroke="none" /><circle cx="368" cy="416" fill="black" r="4.5" stroke="none" /><circle cx="272" cy="512" fill="black" r="4.5" stroke="none" /><circle cx="512" cy="512" fill="black" r="4.5" stroke="none" /><circle cx="-32" cy="608" fill="black" r="4.5" stroke="none" /><circle cx="176" cy="608" fill="black" r="4.5" stroke="none" /><circle cx="368" cy="608" fill="black" r="4.5" stroke="none" /><circle cx="768" cy="608" fill="black" r="4.5" stroke="none" /><g transform="translate(768,656)"><line stroke="black" stroke-linecap="round" stroke-width="3.0" x1="0" x2="0" y1="16" y2="0" /><line stroke="black" stroke-linecap="round" stroke-width="3.0" x1="-16" x2="16" y1="16" y2="16" /><line stroke="black" stroke-linecap="round" stroke-width="3.0" x1="16" x2="0" y1="16" y2="32" /><line stroke="black" stroke-linecap="round" stroke-width="3.0" x1="0" x2="-16" y1="32" y2="16" /></g><g transform="translate(768,-32)"><line stroke="black" stroke-linecap="round" stroke-width="3.0" x1="0" x2="0" y1="0" y2="-16" /><line stroke="black" stroke-linecap="round" stroke-width="3.0" x1="-16" x2="16" y1="-16" y2="-16" /></g><g transform="translate(608,384) rotate(90)"><line stroke="black" stroke-linecap="round" stroke-width="3.0" x1="0" x2="0" y1="80" y2="48" /><line stroke="black" stroke-linecap="round" stroke-width="3.0" x1="0" x2="0" y1="80" y2="48" /><line stroke="black" stroke-linecap="round" stroke-width="3.0" x1="0" x2="0" y1="32" y2="0" /><line stroke="black" stroke-linecap="round" stroke-width="3.0" x1="-20" x2="20" y1="48" y2="48" /><line stroke="black" stroke-linecap="round" stroke-width="3.0" x1="-20" x2="20" y1="32" y2="32" /></g><g transform="translate(720,384) rotate(90)"><line stroke="black" stroke-linecap="round" stroke-width="3.0" x1="0" x2="0" y1="80" y2="64" /><line stroke="black" stroke-linecap="round" stroke-width="3.0" x1="0" x2="0" y1="80" y2="64" /><line stroke="black" stroke-linecap="round" stroke-width="3.0" x1="0" x2="16" y1="16" y2="20" /><line stroke="black" stroke-linecap="round" stroke-width="3.0" x1="16" x2="-16" y1="20" y2="28" /><line stroke="black" stroke-linecap="round" stroke-width="3.0" x1="-16" x2="16" y1="28" y2="36" /><line stroke="black" stroke-linecap="round" stroke-width="3.0" x1="16" x2="-16" y1="36" y2="44" /><line stroke="black" stroke-linecap="round" stroke-width="3.0" x1="-16" x2="16" y1="44" y2="52" /><line stroke="black" stroke-linecap="round" stroke-width="3.0" x1="16" x2="-16" y1="52" y2="60" /><line stroke="black" stroke-linecap="round" stroke-width="3.0" x1="-16" x2="0" y1="60" y2="64" /><line stroke="black" stroke-linecap="round" stroke-width="3.0" x1="0" x2="0" y1="16" y2="0" /></g><g transform="translate(208,128)"><line stroke="black" stroke-linecap="round" stroke-width="3.0" x1="64" x2="64" y1="-32" y2="-48" /><line stroke="black" stroke-linecap="round" stroke-width="3.0" x1="24" x2="24" y1="32" y2="-32" /><line stroke="black" stroke-linecap="round" stroke-width="3.0" x1="64" x2="32" y1="32" y2="32" /><line stroke="black" stroke-linecap="round" stroke-width="3.0" x1="64" x2="64" y1="48" y2="32" /><line stroke="black" stroke-linecap="round" stroke-width="3.0" x1="64" x2="64" y1="-48" y2="-48" /><line stroke="black" stroke-linecap="round" stroke-width="3.0" x1="32" x2="32" y1="32" y2="-32" /><line stroke="black" stroke-linecap="round" stroke-width="3.0" x1="48" x2="32" y1="-28" y2="-32" /><line stroke="black" stroke-linecap="round" stroke-width="3.0" x1="48" x2="48" y1="-36" y2="-28" /><line stroke="black" stroke-linecap="round" stroke-width="3.0" x1="32" x2="48" y1="-32" y2="-36" /><line stroke="black" stroke-linecap="round" stroke-width="3.0" x1="64" x2="48" y1="-32" y2="-32" /><line stroke="black" stroke-linecap="round" stroke-width="3.0" x1="64" x2="64" y1="64" y2="48" /><line stroke="black" stroke-linecap="round" stroke-width="3.0" x1="64" x2="64" y1="64" y2="48" /><line stroke="black" stroke-linecap="round" stroke-width="3.0" x1="0" x2="24" y1="0" y2="0" /><line stroke="black" stroke-linecap="round" stroke-width="3.0" x1="64" x2="64" y1="-64" y2="-48" /></g><g transform="translate(32,128) scale(-1,1)"><line stroke="black" stroke-linecap="round" stroke-width="3.0" x1="64" x2="64" y1="-32" y2="-48" /><line stroke="black" stroke-linecap="round" stroke-width="3.0" x1="24" x2="24" y1="32" y2="-32" /><line stroke="black" stroke-linecap="round" stroke-width="3.0" x1="64" x2="32" y1="32" y2="32" /><line stroke="black" stroke-linecap="round" stroke-width="3.0" x1="64" x2="64" y1="48" y2="32" /><line stroke="black" stroke-linecap="round" stroke-width="3.0" x1="64" x2="64" y1="-48" y2="-48" /><line stroke="black" stroke-linecap="round" stroke-width="3.0" x1="32" x2="32" y1="32" y2="-32" /><line stroke="black" stroke-linecap="round" stroke-width="3.0" x1="48" x2="32" y1="-28" y2="-32" /><line stroke="black" stroke-linecap="round" stroke-width="3.0" x1="48" x2="48" y1="-36" y2="-28" /><line stroke="black" stroke-linecap="round" stroke-width="3.0" x1="32" x2="48" y1="-32" y2="-36" /><line stroke="black" stroke-linecap="round" stroke-width="3.0" x1="64" x2="48" y1="-32" y2="-32" /><line stroke="black" stroke-linecap="round" stroke-width="3.0" x1="64" x2="64" y1="64" y2="48" /><line stroke="black" stroke-linecap="round" stroke-width="3.0" x1="64" x2="64" y1="64" y2="48" /><line stroke="black" stroke-linecap="round" stroke-width="3.0" x1="0" x2="24" y1="0" y2="0" /><line stroke="black" stroke-linecap="round" stroke-width="3.0" x1="64" x2="64" y1="-64" y2="-48" /></g><g transform="translate(304,512)"><line stroke="black" stroke-linecap="round" stroke-width="3.0" x1="64" x2="64" y1="-32" y2="-48" /><line stroke="black" stroke-linecap="round" stroke-width="3.0" x1="24" x2="24" y1="32" y2="-32" /><line stroke="black" stroke-linecap="round" stroke-width="3.0" x1="64" x2="32" y1="-32" y2="-32" /><line stroke="black" stroke-linecap="round" stroke-width="3.0" x1="64" x2="64" y1="48" y2="32" /><line stroke="black" stroke-linecap="round" stroke-width="3.0" x1="64" x2="64" y1="-48" y2="-48" /><line stroke="black" stroke-linecap="round" stroke-width="3.0" x1="32" x2="32" y1="32" y2="-32" /><line stroke="black" stroke-linecap="round" stroke-width="3.0" x1="48" x2="64" y1="28" y2="32" /><line stroke="black" stroke-linecap="round" stroke-width="3.0" x1="48" x2="48" y1="36" y2="28" /><line stroke="black" stroke-linecap="round" stroke-width="3.0" x1="64" x2="48" y1="32" y2="36" /><line stroke="black" stroke-linecap="round" stroke-width="3.0" x1="32" x2="48" y1="32" y2="32" /><line stroke="black" stroke-linecap="round" stroke-width="3.0" x1="64" x2="64" y1="64" y2="48" /><line stroke="black" stroke-linecap="round" stroke-width="3.0" x1="64" x2="64" y1="64" y2="48" /><line stroke="black" stroke-linecap="round" stroke-width="3.0" x1="0" x2="24" y1="0" y2="0" /><line stroke="black" stroke-linecap="round" stroke-width="3.0" x1="64" x2="64" y1="-64" y2="-48" /></g><g transform="translate(704,128)"><line stroke="black" stroke-linecap="round" stroke-width="3.0" x1="64" x2="64" y1="-32" y2="-48" /><line stroke="black" stroke-linecap="round" stroke-width="3.0" x1="24" x2="24" y1="32" y2="-32" /><line stroke="black" stroke-linecap="round" stroke-width="3.0" x1="64" x2="32" y1="32" y2="32" /><line stroke="black" stroke-linecap="round" stroke-width="3.0" x1="64" x2="64" y1="48" y2="32" /><line stroke="black" stroke-linecap="round" stroke-width="3.0" x1="64" x2="64" y1="-48" y2="-48" /><line stroke="black" stroke-linecap="round" stroke-width="3.0" x1="32" x2="32" y1="32" y2="-32" /><line stroke="black" stroke-linecap="round" stroke-width="3.0" x1="48" x2="32" y1="-28" y2="-32" /><line stroke="black" stroke-linecap="round" stroke-width="3.0" x1="48" x2="48" y1="-36" y2="-28" /><line stroke="black" stroke-linecap="round" stroke-width="3.0" x1="32" x2="48" y1="-32" y2="-36" /><line stroke="black" stroke-linecap="round" stroke-width="3.0" x1="64" x2="48" y1="-32" y2="-32" /><line stroke="black" stroke-linecap="round" stroke-width="3.0" x1="64" x2="64" y1="64" y2="48" /><line stroke="black" stroke-linecap="round" stroke-width="3.0" x1="64" x2="64" y1="64" y2="48" /><line stroke="black" stroke-linecap="round" stroke-width="3.0" x1="0" x2="24" y1="0" y2="0" /><line stroke="black" stroke-linecap="round" stroke-width="3.0" x1="64" x2="64" y1="-64" y2="-48" /></g><g transform="translate(704,512)"><line stroke="black" stroke-linecap="round" stroke-width="3.0" x1="64" x2="64" y1="-32" y2="-48" /><line stroke="black" stroke-linecap="round" stroke-width="3.0" x1="24" x2="24" y1="32" y2="-32" /><line stroke="black" stroke-linecap="round" stroke-width="3.0" x1="64" x2="32" y1="-32" y2="-32" /><line stroke="black" stroke-linecap="round" stroke-width="3.0" x1="64" x2="64" y1="48" y2="32" /><line stroke="black" stroke-linecap="round" stroke-width="3.0" x1="64" x2="64" y1="-48" y2="-48" /><line stroke="black" stroke-linecap="round" stroke-width="3.0" x1="32" x2="32" y1="32" y2="-32" /><line stroke="black" stroke-linecap="round" stroke-width="3.0" x1="48" x2="64" y1="28" y2="32" /><line stroke="black" stroke-linecap="round" stroke-width="3.0" x1="48" x2="48" y1="36" y2="28" /><line stroke="black" stroke-linecap="round" stroke-width="3.0" x1="64" x2="48" y1="32" y2="36" /><line stroke="black" stroke-linecap="round" stroke-width="3.0" x1="32" x2="48" y1="32" y2="32" /><line stroke="black" stroke-linecap="round" stroke-width="3.0" x1="64" x2="64" y1="64" y2="48" /><line stroke="black" stroke-linecap="round" stroke-width="3.0" x1="64" x2="64" y1="64" y2="48" /><line stroke="black" stroke-linecap="round" stroke-width="3.0" x1="0" x2="24" y1="0" y2="0" /><line stroke="black" stroke-linecap="round" stroke-width="3.0" x1="64" x2="64" y1="-64" y2="-48" /></g><g transform="translate(240,512) scale(-1,1)"><line stroke="black" stroke-linecap="round" stroke-width="3.0" x1="64" x2="64" y1="-32" y2="-48" /><line stroke="black" stroke-linecap="round" stroke-width="3.0" x1="24" x2="24" y1="32" y2="-32" /><line stroke="black" stroke-linecap="round" stroke-width="3.0" x1="64" x2="32" y1="-32" y2="-32" /><line stroke="black" stroke-linecap="round" stroke-width="3.0" x1="64" x2="64" y1="48" y2="32" /><line stroke="black" stroke-linecap="round" stroke-width="3.0" x1="64" x2="64" y1="-48" y2="-48" /><line stroke="black" stroke-linecap="round" stroke-width="3.0" x1="32" x2="32" y1="32" y2="-32" /><line stroke="black" stroke-linecap="round" stroke-width="3.0" x1="48" x2="64" y1="28" y2="32" /><line stroke="black" stroke-linecap="round" stroke-width="3.0" x1="48" x2="48" y1="36" y2="28" /><line stroke="black" stroke-linecap="round" stroke-width="3.0" x1="64" x2="48" y1="32" y2="36" /><line stroke="black" stroke-linecap="round" stroke-width="3.0" x1="32" x2="48" y1="32" y2="32" /><line stroke="black" stroke-linecap="round" stroke-width="3.0" x1="64" x2="64" y1="64" y2="48" /><line stroke="black" stroke-linecap="round" stroke-width="3.0" x1="64" x2="64" y1="64" y2="48" /><line stroke="black" stroke-linecap="round" stroke-width="3.0" x1="0" x2="24" y1="0" y2="0" /><line stroke="black" stroke-linecap="round" stroke-width="3.0" x1="64" x2="64" y1="-64" y2="-48" /></g><g transform="translate(96,336)"><line stroke="black" stroke-linecap="round" stroke-width="3.0" x1="0" x2="-8" y1="0" y2="0" /><circle cx="-16.0" cy="0.0" fill="none" r="8.0" stroke="black" stroke-width="3.0" /></g><g transform="translate(448,336) rotate(180)"><line stroke="black" stroke-linecap="round" stroke-width="3.0" x1="0" x2="-8" y1="0" y2="0" /><circle cx="-16.0" cy="0.0" fill="none" r="8.0" stroke="black" stroke-width="3.0" /></g><g transform="translate(784,272) rotate(180)"><line stroke="black" stroke-linecap="round" stroke-width="3.0" x1="0" x2="-8" y1="0" y2="0" /><circle cx="-16.0" cy="0.0" fill="none" r="8.0" stroke="black" stroke-width="3.0" /></g><g transform="translate(112,336)"><line stroke="black" stroke-linecap="round" stroke-width="3.0" x1="64" x2="64" y1="-32" y2="-48" /><line stroke="black" stroke-linecap="round" stroke-width="3.0" x1="24" x2="24" y1="32" y2="-32" /><line stroke="black" stroke-linecap="round" stroke-width="3.0" x1="64" x2="32" y1="32" y2="32" /><line stroke="black" stroke-linecap="round" stroke-width="3.0" x1="64" x2="64" y1="48" y2="32" /><line stroke="black" stroke-linecap="round" stroke-width="3.0" x1="64" x2="64" y1="-48" y2="-48" /><line stroke="black" stroke-linecap="round" stroke-width="3.0" x1="32" x2="32" y1="32" y2="-32" /><line stroke="black" stroke-linecap="round" stroke-width="3.0" x1="48" x2="32" y1="-28" y2="-32" /><line stroke="black" stroke-linecap="round" stroke-width="3.0" x1="48" x2="48" y1="-36" y2="-28" /><line stroke="black" stroke-linecap="round" stroke-width="3.0" x1="32" x2="48" y1="-32" y2="-36" /><line stroke="black" stroke-linecap="round" stroke-width="3.0" x1="64" x2="48" y1="-32" y2="-32" /><line stroke="black" stroke-linecap="round" stroke-width="3.0" x1="64" x2="64" y1="64" y2="48" /><line stroke="black" stroke-linecap="round" stroke-width="3.0" x1="64" x2="64" y1="64" y2="48" /><line stroke="black" stroke-linecap="round" stroke-width="3.0" x1="0" x2="24" y1="0" y2="0" /><line stroke="black" stroke-linecap="round" stroke-width="3.0" x1="64" x2="64" y1="-64" y2="-48" /></g><g transform="translate(432,336) scale(-1,1)"><line stroke="black" stroke-linecap="round" stroke-width="3.0" x1="64" x2="64" y1="-32" y2="-48" /><line stroke="black" stroke-linecap="round" stroke-width="3.0" x1="24" x2="24" y1="32" y2="-32" /><line stroke="black" stroke-linecap="round" stroke-width="3.0" x1="64" x2="32" y1="32" y2="32" /><line stroke="black" stroke-linecap="round" stroke-width="3.0" x1="64" x2="64" y1="48" y2="32" /><line stroke="black" stroke-linecap="round" stroke-width="3.0" x1="64" x2="64" y1="-48" y2="-48" /><line stroke="black" stroke-linecap="round" stroke-width="3.0" x1="32" x2="32" y1="32" y2="-32" /><line stroke="black" stroke-linecap="round" stroke-width="3.0" x1="48" x2="32" y1="-28" y2="-32" /><line stroke="black" stroke-linecap="round" stroke-width="3.0" x1="48" x2="48" y1="-36" y2="-28" /><line stroke="black" stroke-linecap="round" stroke-width="3.0" x1="32" x2="48" y1="-32" y2="-36" /><line stroke="black" stroke-linecap="round" stroke-width="3.0" x1="64" x2="48" y1="-32" y2="-32" /><line stroke="black" stroke-linecap="round" stroke-width="3.0" x1="64" x2="64" y1="64" y2="48" /><line stroke="black" stroke-linecap="round" stroke-width="3.0" x1="64" x2="64" y1="64" y2="48" /><line stroke="black" stroke-linecap="round" stroke-width="3.0" x1="0" x2="24" y1="0" y2="0" /><line stroke="black" stroke-linecap="round" stroke-width="3.0" x1="64" x2="64" y1="-64" y2="-48" /></g><g transform="translate(-32,400)"><line stroke="black" stroke-linecap="round" stroke-width="3.0" x1="0" x2="0" y1="96" y2="80" /><line stroke="black" stroke-linecap="round" stroke-width="3.0" x1="0" x2="0" y1="96" y2="80" /><line stroke="black" stroke-linecap="round" stroke-width="3.0" x1="0" x2="0" y1="16" y2="0" /><line stroke="black" stroke-linecap="round" stroke-width="3.0" x1="-4" x2="4" y1="56" y2="56" /><line stroke="black" stroke-linecap="round" stroke-width="3.0" x1="4" x2="0" y1="56" y2="68" /><line stroke="black" stroke-linecap="round" stroke-width="3.0" x1="0" x2="-4" y1="68" y2="56" /><line stroke="black" stroke-linecap="round" stroke-width="3.0" x1="-4" x2="0" y1="56" y2="56" /><line stroke="black" stroke-linecap="round" stroke-width="3.0" x1="0" x2="0" y1="56" y2="28" /><circle cx="0.0" cy="48.0" fill="none" r="32.0" stroke="black" stroke-width="3.0" /></g><g transform="translate(-208,304)"><line stroke="black" stroke-linecap="round" stroke-width="3.0" x1="0" x2="0" y1="96" y2="80" /><line stroke="black" stroke-linecap="round" stroke-width="3.0" x1="0" x2="0" y1="96" y2="80" /><line stroke="black" stroke-linecap="round" stroke-width="3.0" x1="0" x2="0" y1="16" y2="0" /><line stroke="black" stroke-linecap="round" stroke-width="3.0" x1="-8" x2="8" y1="32" y2="32" /><line stroke="black" stroke-linecap="round" stroke-width="3.0" x1="-8" x2="8" y1="64" y2="64" /><line stroke="black" stroke-linecap="round" stroke-width="3.0" x1="0" x2="0" y1="24" y2="40" /><circle cx="0.0" cy="48.0" fill="none" r="32.0" stroke="black" stroke-width="3.0" /></g><text fill="black" font-family="Arial" font-size="22.5px" text-anchor="middle" x="192" y="342.75">M1</text><text fill="black" font-family="Arial" font-size="22.5px" text-anchor="middle" x="352" y="342.75">M2</text><text fill="black" font-family="Arial" font-size="22.5px" text-anchor="middle" x="568" y="350.75">Cc</text><text fill="black" font-family="Arial" font-size="22.5px" text-anchor="middle" x="680" y="350.75">Rc</text><text fill="black" font-family="Arial" font-size="22.5px" text-anchor="middle" x="160" y="518.75">M3</text><text fill="black" font-family="Arial" font-size="22.5px" text-anchor="middle" x="384" y="518.75">M4</text><text fill="black" font-family="Arial" font-size="22.5px" text-anchor="middle" x="200" y="86.75">M6</text><text fill="black" font-family="Arial" font-size="22.5px" text-anchor="middle" x="16" y="86.75">M5</text><text fill="black" font-family="Arial" font-size="22.5px" text-anchor="middle" x="696" y="86.75">M7</text><text fill="black" font-family="Arial" font-size="22.5px" text-anchor="middle" x="696" y="486.75">M8</text><text fill="black" font-family="Arial" font-size="22.5px" text-anchor="middle" x="840" y="278.75">OUT</text><text fill="black" font-family="Arial" font-size="22.5px" text-anchor="middle" x="464" y="318.75">IN_P</text><text fill="black" font-family="Arial" font-size="22.5px" text-anchor="middle" x="80" y="318.75">IN_N</text><text fill="black" font-family="Arial" font-size="22.5px" text-anchor="middle" x="16" y="406.75">I_REF</text><text fill="black" font-family="Arial" font-size="22.5px" text-anchor="middle" x="-144" y="358.75">VDD</text><text fill="black" font-family="Arial" font-size="22.5px" text-anchor="start" x="1048" y="366.75">Left</text><text fill="black" font-family="Arial" font-size="22.5px" text-anchor="middle" x="992" y="366.75">Center</text><text fill="black" font-family="Arial" font-size="22.5px" text-anchor="end" x="936" y="366.75">Right</text><text fill="black" font-family="Arial" font-size="22.5px" text-anchor="middle" x="992" y="389.5">Top</text><text fill="black" font-family="Arial" font-size="22.5px" text-anchor="middle" x="992" y="344.0">Bottom</text><text fill="black" font-family="Arial" font-size="9.375px" text-anchor="start" x="856" y="-5.1875">A</text><text fill="black" font-family="Arial" font-size="15.0px" text-anchor="start" x="856" y="12.5">A</text><text fill="black" font-family="Arial" font-size="22.5px" text-anchor="start" x="856" y="30.75">A</text><text fill="black" font-family="Arial" font-size="30.0px" text-anchor="start" x="856" y="49.0">A</text><text fill="black" font-family="Arial" font-size="37.5px" text-anchor="start" x="856" y="83.25">A</text><text fill="black" font-family="Arial" font-size="52.5px" text-anchor="start" x="856" y="127.75">A</text><text fill="black" font-family="Arial" font-size="75.0px" text-anchor="start" x="856" y="174.5">A</text><text fill="black" font-family="Arial" font-size="105.0px" text-anchor="start" x="856" y="247.5">A</text></svg>