<?xml version="1.0" encoding="utf-8" ?>
<svg baseProfile="full" height="100%" version="1.1" viewBox="-310.4,-86.4,1228.8,844.8" width="100%" xmlns="http://www.w3.org/2000/svg" xmlns:ev="http://www.w3.org/2001/xml-events" xmlns:xlink="http://www.w3.org/1999/xlink"><defs /><line stroke="black" stroke-linecap="round" stroke-width="3.0" x1="-32" x2="-208" y1="16" y2="16" /><line stroke="black" stroke-linecap="round" stroke-width="3.0" x1="272" x2="-32" y1="16" y2="16" /><line stroke="black" stroke-linecap="round" stroke-width="3.0" x1="768" x2="272" y1="16" y2="16" /><line stroke="black" stroke-linecap="round" stroke-width="3.0" x1="-32" x2="-32" y1="64" y2="16" /><line stroke="black" stroke-linecap="round" stroke-width="3.0" x1="272" x2="272" y1="64" y2="16" /><line stroke="black" stroke-linecap="round" stroke-width="3.0" x1="768" x2="768" y1="64" y2="16" /><line stroke="black" stroke-linecap="round" stroke-width="3.0" x1="48" x2="32" y1="128" y2="128" /><line stroke="black" stroke-linecap="round" stroke-width="3.0" x1="208" x2="48" y1="128" y2="128" /><line stroke="black" stroke-linecap="round" stroke-width="3.0" x1="608" x2="208" y1="128" y2="128" /><line stroke="black" stroke-linecap="round" stroke-width="3.0" x1="704" x2="608" y1="128" y2="128" /><line stroke="black" stroke-linecap="round" stroke-width="3.0" x1="-32" x2="-32" y1="224" y2="192" /><line stroke="black" stroke-linecap="round" stroke-width="3.0" x1="48" x2="48" y1="224" y2="128" /><line stroke="black" stroke-linecap="round" stroke-width="3.0" x1="48" x2="-32" y1="224" y2="224" /><line stroke="black" stroke-linecap="round" stroke-width="3.0" x1="272" x2="272" y1="224" y2="192" /><line stroke="black" stroke-linecap="round" stroke-width="3.0" x1="272" x2="176" y1="224" y2="224" /><line stroke="black" stroke-linecap="round" stroke-width="3.0" x1="368" x2="272" y1="224" y2="224" /><line stroke="black" stroke-linecap="round" stroke-width="3.0" x1="176" x2="176" y1="272" y2="224" /><line stroke="black" stroke-linecap="round" stroke-width="3.0" x1="368" x2="368" y1="272" y2="224" /><line stroke="black" stroke-linecap="round" stroke-width="3.0" x1="768" x2="768" y1="272" y2="192" /><line stroke="black" stroke-linecap="round" stroke-width="3.0" x1="816" x2="768" y1="272" y2="272" /><line stroke="black" stroke-linecap="round" stroke-width="3.0" x1="-208" x2="-208" y1="304" y2="16" /><line stroke="black" stroke-linecap="round" stroke-width="3.0" x1="768" x2="768" y1="320" y2="272" /><line stroke="black" stroke-linecap="round" stroke-width="3.0" x1="112" x2="96" y1="336" y2="336" /><line stroke="black" stroke-linecap="round" stroke-width="3.0" x1="448" x2="432" y1="336" y2="336" /><line stroke="black" stroke-linecap="round" stroke-width="3.0" x1="544" x2="512" y1="384" y2="384" /><line stroke="black" stroke-linecap="round" stroke-width="3.0" x1="640" x2="608" y1="384" y2="384" /><line stroke="black" stroke-linecap="round" stroke-width="3.0" x1="768" x2="768" y1="384" y2="320" /><line stroke="black" stroke-linecap="round" stroke-width="3.0" x1="768" x2="720" y1="384" y2="384" /><line stroke="black" stroke-linecap="round" stroke-width="3.0" x1="176" x2="176" y1="416" y2="400" /><line stroke="black" stroke-linecap="round" stroke-width="3.0" x1="272" x2="176" y1="416" y2="416" /><line stroke="black" stroke-linecap="round" stroke-width="3.0" x1="368" x2="368" y1="416" y2="400" /><line stroke="black" stroke-linecap="round" stroke-width="3.0" x1="464" x2="368" y1="416" y2="416" /><line stroke="black" stroke-linecap="round" stroke-width="3.0" x1="-32" x2="-32" y1="432" y2="224" /><line stroke="black" stroke-linecap="round" stroke-width="3.0" x1="176" x2="176" y1="448" y2="416" /><line stroke="black" stroke-linecap="round" stroke-width="3.0" x1="368" x2="368" y1="448" y2="416" /><line stroke="black" stroke-linecap="round" stroke-width="3.0" x1="768" x2="768" y1="448" y2="384" /><line stroke="black" stroke-linecap="round" stroke-width="3.0" x1="272" x2="272" y1="512" y2="416" /><line stroke="black" stroke-linecap="round" stroke-width="3.0" x1="272" x2="240" y1="512" y2="512" /><line stroke="black" stroke-linecap="round" stroke-width="3.0" x1="304" x2="272" y1="512" y2="512" /><line stroke="black" stroke-linecap="round" stroke-width="3.0" x1="464" x2="464" y1="512" y2="416" /><line stroke="black" stroke-linecap="round" stroke-width="3.0" x1="512" x2="512" y1="512" y2="384" /><line stroke="black" stroke-linecap="round" stroke-width="3.0" x1="512" x2="464" y1="512" y2="512" /><line stroke="black" stroke-linecap="round" stroke-width="3.0" x1="704" x2="512" y1="512" y2="512" /><line stroke="black" stroke-linecap="round" stroke-width="3.0" x1="-208" x2="-208" y1="608" y2="384" /><line stroke="black" stroke-linecap="round" stroke-width="3.0" x1="-32" x2="-32" y1="608" y2="512" /><line stroke="black" stroke-linecap="round" stroke-width="3.0" x1="-32" x2="-208" y1="608" y2="608" /><line stroke="black" stroke-linecap="round" stroke-width="3.0" x1="176" x2="176" y1="608" y2="576" /><line stroke="black" stroke-linecap="round" stroke-width="3.0" x1="176" x2="-32" y1="608" y2="608" /><line stroke="black" stroke-linecap="round" stroke-width="3.0" x1="368" x2="368" y1="608" y2="576" /><line stroke="black" stroke-linecap="round" stroke-width="3.0" x1="368" x2="176" y1="608" y2="608" /><line stroke="black" stroke-linecap="round" stroke-width="3.0" x1="768" x2="768" y1="608" y2="576" /><line stroke="black" stroke-linecap="round" stroke-width="3.0" x1="768" x2="368" y1="608" y2="608" /><line stroke="black" stroke-linecap="round" stroke-width="3.0" x1="768" x2="768" y1="656" y2="608" /><circle cx="-32" cy="16" fill="black" r="4.5" /><circle cx="272" cy="16" fill="black" r="4.5" /><circle cx="48" cy="128" fill="black" r="4.5" /><circle cx="-32" cy="224" fill="black" r="4.5" /><circle cx="272" cy="224" fill="black" r="4.5" /><circle cx="768" cy="272" fill="black" r="4.5" /><circle cx="768" cy="384" fill="black" r="4.5" /><circle cx="176" cy="416" fill="black" r="4.5" /><circle cx="368" cy="416" fill="black" r="4.5" /><circle cx="272" cy="512" fill="black" r="4.5" /><circle cx="512" cy="512" fill="black" r="4.5" /><circle cx="-32" cy="608" fill="black" r="4.5" /><circle cx="176" cy="608" fill="black" r="4.5" /><circle cx="368" cy="608" fill="black" r="4.5" /><circle cx="768" cy="608" fill="black" r="4.5" /><g transform="translate(704,512)"><line stroke="black" stroke-linecap="round" stroke-width="3.0" x1="64" x2="64" y1="-32" y2="-48" /><line stroke="black" stroke-linecap="round" stroke-width="3.0" x1="24" x2="24" y1="32" y2="-32" /><line stroke="black" stroke-linecap="round" stroke-width="3.0" x1="64" x2="32" y1="-32" y2="-32" /><line stroke="black" stroke-linecap="round" stroke-width="3.0" x1="64" x2="64" y1="48" y2="32" /><line stroke="black" stroke-linecap="round" stroke-width="3.0" x1="64" x2="64" y1="-48" y2="-48" /><line stroke="black" stroke-linecap="round" stroke-width="3.0" x1="32" x2="32" y1="32" y2="-32" /><line stroke="black" stroke-linecap="round" stroke-width="3.0" x1="48" x2="64" y1="28" y2="32" /><line stroke="black" stroke-linecap="round" stroke-width="3.0" x1="48" x2="48" y1="36" y2="28" /><line stroke="black" stroke-linecap="round" stroke-width="3.0" x1="64" x2="48" y1="32" y2="36" /><line stroke="black" stroke-linecap="round" stroke-width="3.0" x1="32" x2="48" y1="32" y2="32" /><line stroke="black" stroke-linecap="round" stroke-width="3.0" x1="64" x2="64" y1="64" y2="48" /><line stroke="black" stroke-linecap="round" stroke-width="3.0" x1="64" x2="64" y1="64" y2="48" /><line stroke="black" stroke-linecap="round" stroke-width="3.0" x1="0" x2="24" y1="0" y2="0" /><line stroke="black" stroke-linecap="round" stroke-width="3.0" x1="64" x2="64" y1="-64" y2="-48" /><g class="text-group"><text fill="black" font-family="Arial" font-size="24.0px" text-anchor="start" x="8" y="-39.6">M8</text></g></g><g transform="translate(112,336)"><line stroke="black" stroke-linecap="round" stroke-width="3.0" x1="64" x2="64" y1="-32" y2="-48" /><line stroke="black" stroke-linecap="round" stroke-width="3.0" x1="24" x2="24" y1="32" y2="-32" /><line stroke="black" stroke-linecap="round" stroke-width="3.0" x1="64" x2="32" y1="32" y2="32" /><line stroke="black" stroke-linecap="round" stroke-width="3.0" x1="64" x2="64" y1="48" y2="32" /><line stroke="black" stroke-linecap="round" stroke-width="3.0" x1="64" x2="64" y1="-48" y2="-48" /><line stroke="black" stroke-linecap="round" stroke-width="3.0" x1="32" x2="32" y1="32" y2="-32" /><line stroke="black" stroke-linecap="round" stroke-width="3.0" x1="48" x2="32" y1="-28" y2="-32" /><line stroke="black" stroke-linecap="round" stroke-width="3.0" x1="48" x2="48" y1="-36" y2="-28" /><line stroke="black" stroke-linecap="round" stroke-width="3.0" x1="32" x2="48" y1="-32" y2="-36" /><line stroke="black" stroke-linecap="round" stroke-width="3.0" x1="64" x2="48" y1="-32" y2="-32" /><line stroke="black" stroke-linecap="round" stroke-width="3.0" x1="64" x2="64" y1="64" y2="48" /><line stroke="black" stroke-linecap="round" stroke-width="3.0" x1="64" x2="64" y1="64" y2="48" /><line stroke="black" stroke-linecap="round" stroke-width="3.0" x1="0" x2="24" y1="0" y2="0" /><line stroke="black" stroke-linecap="round" stroke-width="3.0" x1="64" x2="64" y1="-64" y2="-48" /><g class="text-group"><text fill="black" font-family="Arial" font-size="24.0px" text-anchor="start" x="8" y="56.4">M1</text></g></g><g transform="translate(432,336) scale(-1,1)"><line stroke="black" stroke-linecap="round" stroke-width="3.0" x1="64" x2="64" y1="-32" y2="-48" /><line stroke="black" stroke-linecap="round" stroke-width="3.0" x1="24" x2="24" y1="32" y2="-32" /><line stroke="black" stroke-linecap="round" stroke-width="3.0" x1="64" x2="32" y1="32" y2="32" /><line stroke="black" stroke-linecap="round" stroke-width="3.0" x1="64" x2="64" y1="48" y2="32" /><line stroke="black" stroke-linecap="round" stroke-width="3.0" x1="64" x2="64" y1="-48" y2="-48" /><line stroke="black" stroke-linecap="round" stroke-width="3.0" x1="32" x2="32" y1="32" y2="-32" /><line stroke="black" stroke-linecap="round" stroke-width="3.0" x1="48" x2="32" y1="-28" y2="-32" /><line stroke="black" stroke-linecap="round" stroke-width="3.0" x1="48" x2="48" y1="-36" y2="-28" /><line stroke="black" stroke-linecap="round" stroke-width="3.0" x1="32" x2="48" y1="-32" y2="-36" /><line stroke="black" stroke-linecap="round" stroke-width="3.0" x1="64" x2="48" y1="-32" y2="-32" /><line stroke="black" stroke-linecap="round" stroke-width="3.0" x1="64" x2="64" y1="64" y2="48" /><line stroke="black" stroke-linecap="round" stroke-width="3.0" x1="64" x2="64" y1="64" y2="48" /><line stroke="black" stroke-linecap="round" stroke-width="3.0" x1="0" x2="24" y1="0" y2="0" /><line stroke="black" stroke-linecap="round" stroke-width="3.0" x1="64" x2="64" y1="-64" y2="-48" /><g transform="scale(-1,1) translate(-16,0)"><g class="text-group"><text fill="black" font-family="Arial" font-size="24.0px" text-anchor="end" x="8" y="56.4">M2</text></g></g></g><g transform="translate(304,512)"><line stroke="black" stroke-linecap="round" stroke-width="3.0" x1="64" x2="64" y1="-32" y2="-48" /><line stroke="black" stroke-linecap="round" stroke-width="3.0" x1="24" x2="24" y1="32" y2="-32" /><line stroke="black" stroke-linecap="round" stroke-width="3.0" x1="64" x2="32" y1="-32" y2="-32" /><line stroke="black" stroke-linecap="round" stroke-width="3.0" x1="64" x2="64" y1="48" y2="32" /><line stroke="black" stroke-linecap="round" stroke-width="3.0" x1="64" x2="64" y1="-48" y2="-48" /><line stroke="black" stroke-linecap="round" stroke-width="3.0" x1="32" x2="32" y1="32" y2="-32" /><line stroke="black" stroke-linecap="round" stroke-width="3.0" x1="48" x2="64" y1="28" y2="32" /><line stroke="black" stroke-linecap="round" stroke-width="3.0" x1="48" x2="48" y1="36" y2="28" /><line stroke="black" stroke-linecap="round" stroke-width="3.0" x1="64" x2="48" y1="32" y2="36" /><line stroke="black" stroke-linecap="round" stroke-width="3.0" x1="32" x2="48" y1="32" y2="32" /><line stroke="black" stroke-linecap="round" stroke-width="3.0" x1="64" x2="64" y1="64" y2="48" /><line stroke="black" stroke-linecap="round" stroke-width="3.0" x1="64" x2="64" y1="64" y2="48" /><line stroke="black" stroke-linecap="round" stroke-width="3.0" x1="0" x2="24" y1="0" y2="0" /><line stroke="black" stroke-linecap="round" stroke-width="3.0" x1="64" x2="64" y1="-64" y2="-48" /><g class="text-group"><text fill="black" font-family="Arial" font-size="24.0px" text-anchor="start" x="8" y="-39.6">M4</text></g></g><g transform="translate(240,512) scale(-1,1)"><line stroke="black" stroke-linecap="round" stroke-width="3.0" x1="64" x2="64" y1="-32" y2="-48" /><line stroke="black" stroke-linecap="round" stroke-width="3.0" x1="24" x2="24" y1="32" y2="-32" /><line stroke="black" stroke-linecap="round" stroke-width="3.0" x1="64" x2="32" y1="-32" y2="-32" /><line stroke="black" stroke-linecap="round" stroke-width="3.0" x1="64" x2="64" y1="48" y2="32" /><line stroke="black" stroke-linecap="round" stroke-width="3.0" x1="64" x2="64" y1="-48" y2="-48" /><line stroke="black" stroke-linecap="round" stroke-width="3.0" x1="32" x2="32" y1="32" y2="-32" /><line stroke="black" stroke-linecap="round" stroke-width="3.0" x1="48" x2="64" y1="28" y2="32" /><line stroke="black" stroke-linecap="round" stroke-width="3.0" x1="48" x2="48" y1="36" y2="28" /><line stroke="black" stroke-linecap="round" stroke-width="3.0" x1="64" x2="48" y1="32" y2="36" /><line stroke="black" stroke-linecap="round" stroke-width="3.0" x1="32" x2="48" y1="32" y2="32" /><line stroke="black" stroke-linecap="round" stroke-width="3.0" x1="64" x2="64" y1="64" y2="48" /><line stroke="black" stroke-linecap="round" stroke-width="3.0" x1="64" x2="64" y1="64" y2="48" /><line stroke="black" stroke-linecap="round" stroke-width="3.0" x1="0" x2="24" y1="0" y2="0" /><line stroke="black" stroke-linecap="round" stroke-width="3.0" x1="64" x2="64" y1="-64" y2="-48" /><g transform="scale(-1,1) translate(-16,0)"><g class="text-group"><text fill="black" font-family="Arial" font-size="24.0px" text-anchor="end" x="8" y="-39.6">M3</text></g></g></g><g transform="translate(32,128) scale(-1,1)"><line stroke="black" stroke-linecap="round" stroke-width="3.0" x1="64" x2="64" y1="-32" y2="-48" /><line stroke="black" stroke-linecap="round" stroke-width="3.0" x1="24" x2="24" y1="32" y2="-32" /><line stroke="black" stroke-linecap="round" stroke-width="3.0" x1="64" x2="32" y1="32" y2="32" /><line stroke="black" stroke-linecap="round" stroke-width="3.0" x1="64" x2="64" y1="48" y2="32" /><line stroke="black" stroke-linecap="round" stroke-width="3.0" x1="64" x2="64" y1="-48" y2="-48" /><line stroke="black" stroke-linecap="round" stroke-width="3.0" x1="32" x2="32" y1="32" y2="-32" /><line stroke="black" stroke-linecap="round" stroke-width="3.0" x1="48" x2="32" y1="-28" y2="-32" /><line stroke="black" stroke-linecap="round" stroke-width="3.0" x1="48" x2="48" y1="-36" y2="-28" /><line stroke="black" stroke-linecap="round" stroke-width="3.0" x1="32" x2="48" y1="-32" y2="-36" /><line stroke="black" stroke-linecap="round" stroke-width="3.0" x1="64" x2="48" y1="-32" y2="-32" /><line stroke="black" stroke-linecap="round" stroke-width="3.0" x1="64" x2="64" y1="64" y2="48" /><line stroke="black" stroke-linecap="round" stroke-width="3.0" x1="64" x2="64" y1="64" y2="48" /><line stroke="black" stroke-linecap="round" stroke-width="3.0" x1="0" x2="24" y1="0" y2="0" /><line stroke="black" stroke-linecap="round" stroke-width="3.0" x1="64" x2="64" y1="-64" y2="-48" /><g transform="scale(-1,1) translate(-16,0)"><g class="text-group"><text fill="black" font-family="Arial" font-size="24.0px" text-anchor="end" x="8" y="56.4">M5</text></g></g></g><g transform="translate(208,128)"><line stroke="black" stroke-linecap="round" stroke-width="3.0" x1="64" x2="64" y1="-32" y2="-48" /><line stroke="black" stroke-linecap="round" stroke-width="3.0" x1="24" x2="24" y1="32" y2="-32" /><line stroke="black" stroke-linecap="round" stroke-width="3.0" x1="64" x2="32" y1="32" y2="32" /><line stroke="black" stroke-linecap="round" stroke-width="3.0" x1="64" x2="64" y1="48" y2="32" /><line stroke="black" stroke-linecap="round" stroke-width="3.0" x1="64" x2="64" y1="-48" y2="-48" /><line stroke="black" stroke-linecap="round" stroke-width="3.0" x1="32" x2="32" y1="32" y2="-32" /><line stroke="black" stroke-linecap="round" stroke-width="3.0" x1="48" x2="32" y1="-28" y2="-32" /><line stroke="black" stroke-linecap="round" stroke-width="3.0" x1="48" x2="48" y1="-36" y2="-28" /><line stroke="black" stroke-linecap="round" stroke-width="3.0" x1="32" x2="48" y1="-32" y2="-36" /><line stroke="black" stroke-linecap="round" stroke-width="3.0" x1="64" x2="48" y1="-32" y2="-32" /><line stroke="black" stroke-linecap="round" stroke-width="3.0" x1="64" x2="64" y1="64" y2="48" /><line stroke="black" stroke-linecap="round" stroke-width="3.0" x1="64" x2="64" y1="64" y2="48" /><line stroke="black" stroke-linecap="round" stroke-width="3.0" x1="0" x2="24" y1="0" y2="0" /><line stroke="black" stroke-linecap="round" stroke-width="3.0" x1="64" x2="64" y1="-64" y2="-48" /><g class="text-group"><text fill="black" font-family="Arial" font-size="24.0px" text-anchor="start" x="8" y="56.4">M6</text></g></g><g transform="translate(704,128)"><line stroke="black" stroke-linecap="round" stroke-width="3.0" x1="64" x2="64" y1="-32" y2="-48" /><line stroke="black" stroke-linecap="round" stroke-width="3.0" x1="24" x2="24" y1="32" y2="-32" /><line stroke="black" stroke-linecap="round" stroke-width="3.0" x1="64" x2="32" y1="32" y2="32" /><line stroke="black" stroke-linecap="round" stroke-width="3.0" x1="64" x2="64" y1="48" y2="32" /><line stroke="black" stroke-linecap="round" stroke-width="3.0" x1="64" x2="64" y1="-48" y2="-48" /><line stroke="black" stroke-linecap="round" stroke-width="3.0" x1="32" x2="32" y1="32" y2="-32" /><line stroke="black" stroke-linecap="round" stroke-width="3.0" x1="48" x2="32" y1="-28" y2="-32" /><line stroke="black" stroke-linecap="round" stroke-width="3.0" x1="48" x2="48" y1="-36" y2="-28" /><line stroke="black" stroke-linecap="round" stroke-width="3.0" x1="32" x2="48" y1="-32" y2="-36" /><line stroke="black" stroke-linecap="round" stroke-width="3.0" x1="64" x2="48" y1="-32" y2="-32" /><line stroke="black" stroke-linecap="round" stroke-width="3.0" x1="64" x2="64" y1="64" y2="48" /><line stroke="black" stroke-linecap="round" stroke-width="3.0" x1="64" x2="64" y1="64" y2="48" /><line stroke="black" stroke-linecap="round" stroke-width="3.0" x1="0" x2="24" y1="0" y2="0" /><line stroke="black" stroke-linecap="round" stroke-width="3.0" x1="64" x2="64" y1="-64" y2="-48" /><g class="text-group"><text fill="black" font-family="Arial" font-size="24.0px" text-anchor="start" x="8" y="56.4">M7</text></g></g><g transform="translate(-208,288)"><line stroke="black" stroke-linecap="round" stroke-width="3.0" x1="-8" x2="8" y1="36" y2="36" /><line stroke="black" stroke-linecap="round" stroke-width="3.0" x1="-8" x2="8" y1="76" y2="76" /><line stroke="black" stroke-linecap="round" stroke-width="3.0" x1="0" x2="0" y1="28" y2="44" /><line stroke="black" stroke-linecap="round" stroke-width="3.0" x1="0" x2="0" y1="96" y2="88" /><line stroke="black" stroke-linecap="round" stroke-width="3.0" x1="0" x2="0" y1="16" y2="24" /><circle cx="0.0" cy="56.0" fill="none" r="32.0" stroke="black" stroke-width="3.0" /><g class="text-group"><text fill="black" font-family="Arial" font-size="24.0px" text-anchor="start" x="24" y="24.4">V1</text></g></g><g transform="translate(-32,432)"><line stroke="black" stroke-linecap="round" stroke-width="3.0" x1="0" x2="4" y1="56" y2="44" /><line stroke="black" stroke-linecap="round" stroke-width="3.0" x1="0" x2="-4" y1="56" y2="44" /><line stroke="black" stroke-linecap="round" stroke-width="3.0" x1="-4" x2="4" y1="44" y2="44" /><line stroke="black" stroke-linecap="round" stroke-width="3.0" x1="0" x2="0" y1="24" y2="44" /><line stroke="black" stroke-linecap="round" stroke-width="3.0" x1="0" x2="0" y1="80" y2="72" /><line stroke="black" stroke-linecap="round" stroke-width="3.0" x1="0" x2="0" y1="0" y2="8" /><circle cx="0.0" cy="40.0" fill="none" r="32.0" stroke="black" stroke-width="3.0" /><g class="text-group"><text fill="black" font-family="Arial" font-size="24.0px" text-anchor="start" x="24" y="8.399999999999999">I1</text></g></g><g transform="translate(608,368) rotate(90)"><line stroke="black" stroke-linecap="round" stroke-width="3.0" x1="16" x2="16" y1="64" y2="40" /><line stroke="black" stroke-linecap="round" stroke-width="3.0" x1="16" x2="16" y1="24" y2="0" /><line stroke="black" stroke-linecap="round" stroke-width="3.0" x1="-4" x2="36" y1="40" y2="40" /><line stroke="black" stroke-linecap="round" stroke-width="3.0" x1="-4" x2="36" y1="24" y2="24" /><g transform="rotate(-90, -4, 32)"><g class="text-group"><text fill="black" font-family="Arial" font-size="24.0px" text-anchor="middle" x="-4" y="27.2">C1</text></g></g></g><g transform="translate(736,368) rotate(90)"><line stroke="black" stroke-linecap="round" stroke-width="3.0" x1="16" x2="16" y1="96" y2="80" /><line stroke="black" stroke-linecap="round" stroke-width="3.0" x1="16" x2="16" y1="96" y2="80" /><line stroke="black" stroke-linecap="round" stroke-width="3.0" x1="16" x2="32" y1="32" y2="36" /><line stroke="black" stroke-linecap="round" stroke-width="3.0" x1="32" x2="0" y1="36" y2="44" /><line stroke="black" stroke-linecap="round" stroke-width="3.0" x1="0" x2="32" y1="44" y2="52" /><line stroke="black" stroke-linecap="round" stroke-width="3.0" x1="32" x2="0" y1="52" y2="60" /><line stroke="black" stroke-linecap="round" stroke-width="3.0" x1="0" x2="32" y1="60" y2="68" /><line stroke="black" stroke-linecap="round" stroke-width="3.0" x1="32" x2="0" y1="68" y2="76" /><line stroke="black" stroke-linecap="round" stroke-width="3.0" x1="0" x2="16" y1="76" y2="80" /><line stroke="black" stroke-linecap="round" stroke-width="3.0" x1="16" x2="16" y1="32" y2="16" /><g transform="rotate(-90, 0, 56)"><g class="text-group"><text fill="black" font-family="Arial" font-size="24.0px" text-anchor="middle" x="0" y="51.2">R1</text></g></g></g><g class="text-group"><text fill="black" font-family="Arial" font-size="56.0px" text-anchor="middle" x="272" y="-28.400000000000002">2-Stage Miller OTA</text></g><g class="text-group"><text fill="black" font-family="Arial" font-size="24.0px" text-anchor="start" x="24" y="664.4">.op</text></g><g class="ground-flag"><g transform="translate(768,656) rotate(0)"><line stroke="black" stroke-linecap="round" stroke-width="3.0" x1="-16" x2="16" y1="0" y2="0" /><line stroke="black" stroke-linecap="round" stroke-width="3.0" x1="-16" x2="0" y1="0" y2="16" /><line stroke="black" stroke-linecap="round" stroke-width="3.0" x1="16" x2="0" y1="0" y2="16" /></g></g><g class="text-group"><text fill="black" font-family="Arial" font-size="24.0px" text-anchor="middle" x="608" y="123.2">VBP</text></g><g class="net-label" /><g transform="rotate(-90, 768, 320)"><g class="text-group"><text fill="black" font-family="Arial" font-size="24.0px" text-anchor="middle" x="768" y="315.2">OUT</text></g></g><g class="net-label" /><g class="text-group"><text fill="black" font-family="Arial" font-size="24.0px" text-anchor="end" x="58" y="344.4">IN_N</text></g><g class="io-pin" transform="translate(96,336) rotate(90)"><line stroke="black" stroke-linecap="round" stroke-width="3.0" x1="0" x2="16" y1="0" y2="16" /><line stroke="black" stroke-linecap="round" stroke-width="3.0" x1="16" x2="16" y1="16" y2="32" /><line stroke="black" stroke-linecap="round" stroke-width="3.0" x1="16" x2="-16" y1="32" y2="32" /><line stroke="black" stroke-linecap="round" stroke-width="3.0" x1="-16" x2="-16" y1="32" y2="16" /><line stroke="black" stroke-linecap="round" stroke-width="3.0" x1="-16" x2="0" y1="16" y2="0" /></g><g class="text-group"><text fill="black" font-family="Arial" font-size="24.0px" text-anchor="start" x="486" y="344.4">IN_P</text></g><g class="io-pin" transform="translate(448,336) rotate(270)"><line stroke="black" stroke-linecap="round" stroke-width="3.0" x1="0" x2="16" y1="0" y2="16" /><line stroke="black" stroke-linecap="round" stroke-width="3.0" x1="16" x2="16" y1="16" y2="32" /><line stroke="black" stroke-linecap="round" stroke-width="3.0" x1="16" x2="-16" y1="32" y2="32" /><line stroke="black" stroke-linecap="round" stroke-width="3.0" x1="-16" x2="-16" y1="32" y2="16" /><line stroke="black" stroke-linecap="round" stroke-width="3.0" x1="-16" x2="0" y1="16" y2="0" /></g><g class="text-group"><text fill="black" font-family="Arial" font-size="24.0px" text-anchor="start" x="868" y="280.4">OUT</text></g><g class="io-pin" transform="translate(816,272) rotate(270)"><line stroke="black" stroke-linecap="round" stroke-width="3.0" x1="-16" x2="0" y1="32" y2="48" /><line stroke="black" stroke-linecap="round" stroke-width="3.0" x1="16" x2="16" y1="16" y2="32" /><line stroke="black" stroke-linecap="round" stroke-width="3.0" x1="16" x2="-16" y1="16" y2="16" /><line stroke="black" stroke-linecap="round" stroke-width="3.0" x1="-16" x2="-16" y1="32" y2="16" /><line stroke="black" stroke-linecap="round" stroke-width="3.0" x1="0" x2="16" y1="48" y2="32" /><line stroke="black" stroke-linecap="round" stroke-width="3.0" x1="0" x2="0" y1="16" y2="0" /></g></svg>