<?xml version="1.0" encoding="utf-8" ?>
<svg baseProfile="tiny" height="100%" version="1.2" viewBox="-182.0,-182.0,1116.0,988.0" width="100%" xmlns="http://www.w3.org/2000/svg" xmlns:ev="http://www.w3.org/2001/xml-events" xmlns:xlink="http://www.w3.org/1999/xlink"><defs /><line stroke="black" stroke-linecap="round" stroke-width="4.0" x1="272.0" x2="-32.0" y1="16.0" y2="16.0" /><line stroke="black" stroke-linecap="round" stroke-width="4.0" x1="768.0" x2="768.0" y1="16.0" y2="-32.0" /><line stroke="black" stroke-linecap="round" stroke-width="4.0" x1="768.0" x2="272.0" y1="16.0" y2="16.0" /><line stroke="black" stroke-linecap="round" stroke-width="4.0" x1="-32.0" x2="-32.0" y1="64.0" y2="16.0" /><line stroke="black" stroke-linecap="round" stroke-width="4.0" x1="272.0" x2="272.0" y1="64.0" y2="16.0" /><line stroke="black" stroke-linecap="round" stroke-width="4.0" x1="768.0" x2="768.0" y1="64.0" y2="16.0" /><line stroke="black" stroke-linecap="round" stroke-width="4.0" x1="48.0" x2="32.0" y1="128.0" y2="128.0" /><line stroke="black" stroke-linecap="round" stroke-width="4.0" x1="208.0" x2="48.0" y1="128.0" y2="128.0" /><line stroke="black" stroke-linecap="round" stroke-width="4.0" x1="704.0" x2="208.0" y1="128.0" y2="128.0" /><line stroke="black" stroke-linecap="round" stroke-width="4.0" x1="-32.0" x2="-32.0" y1="224.0" y2="192.0" /><line stroke="black" stroke-linecap="round" stroke-width="4.0" x1="48.0" x2="48.0" y1="224.0" y2="128.0" /><line stroke="black" stroke-linecap="round" stroke-width="4.0" x1="48.0" x2="-32.0" y1="224.0" y2="224.0" /><line stroke="black" stroke-linecap="round" stroke-width="4.0" x1="272.0" x2="272.0" y1="224.0" y2="192.0" /><line stroke="black" stroke-linecap="round" stroke-width="4.0" x1="272.0" x2="176.0" y1="224.0" y2="224.0" /><line stroke="black" stroke-linecap="round" stroke-width="4.0" x1="368.0" x2="272.0" y1="224.0" y2="224.0" /><line stroke="black" stroke-linecap="round" stroke-width="4.0" x1="176.0" x2="176.0" y1="272.0" y2="224.0" /><line stroke="black" stroke-linecap="round" stroke-width="4.0" x1="368.0" x2="368.0" y1="272.0" y2="224.0" /><line stroke="black" stroke-linecap="round" stroke-width="4.0" x1="768.0" x2="768.0" y1="272.0" y2="192.0" /><line stroke="black" stroke-linecap="round" stroke-width="4.0" x1="784.0" x2="768.0" y1="272.0" y2="272.0" /><line stroke="black" stroke-linecap="round" stroke-width="4.0" x1="-32.0" x2="-32.0" y1="304.0" y2="224.0" /><line stroke="black" stroke-linecap="round" stroke-width="4.0" x1="112.0" x2="96.0" y1="336.0" y2="336.0" /><line stroke="black" stroke-linecap="round" stroke-width="4.0" x1="448.0" x2="432.0" y1="336.0" y2="336.0" /><line stroke="black" stroke-linecap="round" stroke-width="4.0" x1="528.0" x2="512.0" y1="384.0" y2="384.0" /><line stroke="black" stroke-linecap="round" stroke-width="4.0" x1="640.0" x2="608.0" y1="384.0" y2="384.0" /><line stroke="black" stroke-linecap="round" stroke-width="4.0" x1="768.0" x2="768.0" y1="384.0" y2="272.0" /><line stroke="black" stroke-linecap="round" stroke-width="4.0" x1="768.0" x2="720.0" y1="384.0" y2="384.0" /><line stroke="black" stroke-linecap="round" stroke-width="4.0" x1="176.0" x2="176.0" y1="416.0" y2="400.0" /><line stroke="black" stroke-linecap="round" stroke-width="4.0" x1="272.0" x2="176.0" y1="416.0" y2="416.0" /><line stroke="black" stroke-linecap="round" stroke-width="4.0" x1="368.0" x2="368.0" y1="416.0" y2="400.0" /><line stroke="black" stroke-linecap="round" stroke-width="4.0" x1="464.0" x2="368.0" y1="416.0" y2="416.0" /><line stroke="black" stroke-linecap="round" stroke-width="4.0" x1="176.0" x2="176.0" y1="448.0" y2="416.0" /><line stroke="black" stroke-linecap="round" stroke-width="4.0" x1="368.0" x2="368.0" y1="448.0" y2="416.0" /><line stroke="black" stroke-linecap="round" stroke-width="4.0" x1="768.0" x2="768.0" y1="448.0" y2="384.0" /><line stroke="black" stroke-linecap="round" stroke-width="4.0" x1="272.0" x2="272.0" y1="512.0" y2="416.0" /><line stroke="black" stroke-linecap="round" stroke-width="4.0" x1="272.0" x2="240.0" y1="512.0" y2="512.0" /><line stroke="black" stroke-linecap="round" stroke-width="4.0" x1="304.0" x2="272.0" y1="512.0" y2="512.0" /><line stroke="black" stroke-linecap="round" stroke-width="4.0" x1="464.0" x2="464.0" y1="512.0" y2="416.0" /><line stroke="black" stroke-linecap="round" stroke-width="4.0" x1="512.0" x2="512.0" y1="512.0" y2="384.0" /><line stroke="black" stroke-linecap="round" stroke-width="4.0" x1="512.0" x2="464.0" y1="512.0" y2="512.0" /><line stroke="black" stroke-linecap="round" stroke-width="4.0" x1="704.0" x2="512.0" y1="512.0" y2="512.0" /><line stroke="black" stroke-linecap="round" stroke-width="4.0" x1="176.0" x2="176.0" y1="608.0" y2="576.0" /><line stroke="black" stroke-linecap="round" stroke-width="4.0" x1="368.0" x2="368.0" y1="608.0" y2="576.0" /><line stroke="black" stroke-linecap="round" stroke-width="4.0" x1="368.0" x2="176.0" y1="608.0" y2="608.0" /><line stroke="black" stroke-linecap="round" stroke-width="4.0" x1="768.0" x2="768.0" y1="608.0" y2="576.0" /><line stroke="black" stroke-linecap="round" stroke-width="4.0" x1="768.0" x2="368.0" y1="608.0" y2="608.0" /><line stroke="black" stroke-linecap="round" stroke-width="4.0" x1="768.0" x2="768.0" y1="656.0" y2="608.0" /><circle cx="272.0" cy="16.0" fill="black" r="6.0" stroke="none" /><circle cx="768.0" cy="16.0" fill="black" r="6.0" stroke="none" /><circle cx="48.0" cy="128.0" fill="black" r="6.0" stroke="none" /><circle cx="-32.0" cy="224.0" fill="black" r="6.0" stroke="none" /><circle cx="272.0" cy="224.0" fill="black" r="6.0" stroke="none" /><circle cx="768.0" cy="272.0" fill="black" r="6.0" stroke="none" /><circle cx="768.0" cy="384.0" fill="black" r="6.0" stroke="none" /><circle cx="176.0" cy="416.0" fill="black" r="6.0" stroke="none" /><circle cx="368.0" cy="416.0" fill="black" r="6.0" stroke="none" /><circle cx="272.0" cy="512.0" fill="black" r="6.0" stroke="none" /><circle cx="512.0" cy="512.0" fill="black" r="6.0" stroke="none" /><circle cx="368.0" cy="608.0" fill="black" r="6.0" stroke="none" /><circle cx="768.0" cy="608.0" fill="black" r="6.0" stroke="none" /><g transform="translate(768.0,656.0)"><line stroke="black" stroke-linecap="round" stroke-width="4.0" x1="0.0" x2="0.0" y1="16.0" y2="0.0" /><line stroke="black" stroke-linecap="round" stroke-width="4.0" x1="-16.0" x2="16.0" y1="16.0" y2="16.0" /><line stroke="black" stroke-linecap="round" stroke-width="4.0" x1="16.0" x2="0.0" y1="16.0" y2="32.0" /><line stroke="black" stroke-linecap="round" stroke-width="4.0" x1="0.0" x2="-16.0" y1="32.0" y2="16.0" /></g><g transform="translate(768.0,-32.0)"><line stroke="black" stroke-linecap="round" stroke-width="4.0" x1="0.0" x2="0.0" y1="0.0" y2="-16.0" /><line stroke="black" stroke-linecap="round" stroke-width="4.0" x1="-16.0" x2="16.0" y1="-16.0" y2="-16.0" /></g><g transform="translate(608.0,384.0) rotate(90)"><line stroke="black" stroke-linecap="round" stroke-width="4.0" x1="0.0" x2="0.0" y1="80.0" y2="48.0" /><line stroke="black" stroke-linecap="round" stroke-width="4.0" x1="0.0" x2="0.0" y1="80.0" y2="48.0" /><line stroke="black" stroke-linecap="round" stroke-width="4.0" x1="0.0" x2="0.0" y1="32.0" y2="0.0" /><line stroke="black" stroke-linecap="round" stroke-width="4.0" x1="-20.0" x2="20.0" y1="48.0" y2="48.0" /><line stroke="black" stroke-linecap="round" stroke-width="4.0" x1="-20.0" x2="20.0" y1="32.0" y2="32.0" /></g><g transform="translate(720.0,384.0) rotate(90)"><line stroke="black" stroke-linecap="round" stroke-width="4.0" x1="0.0" x2="0.0" y1="80.0" y2="64.0" /><line stroke="black" stroke-linecap="round" stroke-width="4.0" x1="0.0" x2="0.0" y1="80.0" y2="64.0" /><line stroke="black" stroke-linecap="round" stroke-width="4.0" x1="0.0" x2="16.0" y1="16.0" y2="20.0" /><line stroke="black" stroke-linecap="round" stroke-width="4.0" x1="16.0" x2="-16.0" y1="20.0" y2="28.0" /><line stroke="black" stroke-linecap="round" stroke-width="4.0" x1="-16.0" x2="16.0" y1="28.0" y2="36.0" /><line stroke="black" stroke-linecap="round" stroke-width="4.0" x1="16.0" x2="-16.0" y1="36.0" y2="44.0" /><line stroke="black" stroke-linecap="round" stroke-width="4.0" x1="-16.0" x2="16.0" y1="44.0" y2="52.0" /><line stroke="black" stroke-linecap="round" stroke-width="4.0" x1="16.0" x2="-16.0" y1="52.0" y2="60.0" /><line stroke="black" stroke-linecap="round" stroke-width="4.0" x1="-16.0" x2="0.0" y1="60.0" y2="64.0" /><line stroke="black" stroke-linecap="round" stroke-width="4.0" x1="0.0" x2="0.0" y1="16.0" y2="0.0" /></g><g transform="translate(208.0,128.0)"><line stroke="black" stroke-linecap="round" stroke-width="4.0" x1="64.0" x2="64.0" y1="-32.0" y2="-48.0" /><line stroke="black" stroke-linecap="round" stroke-width="4.0" x1="24.0" x2="24.0" y1="32.0" y2="-32.0" /><line stroke="black" stroke-linecap="round" stroke-width="4.0" x1="64.0" x2="32.0" y1="32.0" y2="32.0" /><line stroke="black" stroke-linecap="round" stroke-width="4.0" x1="64.0" x2="64.0" y1="48.0" y2="32.0" /><line stroke="black" stroke-linecap="round" stroke-width="4.0" x1="64.0" x2="64.0" y1="-48.0" y2="-48.0" /><line stroke="black" stroke-linecap="round" stroke-width="4.0" x1="32.0" x2="32.0" y1="32.0" y2="-32.0" /><line stroke="black" stroke-linecap="round" stroke-width="4.0" x1="48.0" x2="32.0" y1="-28.0" y2="-32.0" /><line stroke="black" stroke-linecap="round" stroke-width="4.0" x1="48.0" x2="48.0" y1="-36.0" y2="-28.0" /><line stroke="black" stroke-linecap="round" stroke-width="4.0" x1="32.0" x2="48.0" y1="-32.0" y2="-36.0" /><line stroke="black" stroke-linecap="round" stroke-width="4.0" x1="64.0" x2="48.0" y1="-32.0" y2="-32.0" /><line stroke="black" stroke-linecap="round" stroke-width="4.0" x1="64.0" x2="64.0" y1="64.0" y2="48.0" /><line stroke="black" stroke-linecap="round" stroke-width="4.0" x1="64.0" x2="64.0" y1="64.0" y2="48.0" /><line stroke="black" stroke-linecap="round" stroke-width="4.0" x1="0.0" x2="24.0" y1="0.0" y2="0.0" /><line stroke="black" stroke-linecap="round" stroke-width="4.0" x1="64.0" x2="64.0" y1="-64.0" y2="-48.0" /></g><g transform="translate(32.0,128.0) scale(-1,1)"><line stroke="black" stroke-linecap="round" stroke-width="4.0" x1="64.0" x2="64.0" y1="-32.0" y2="-48.0" /><line stroke="black" stroke-linecap="round" stroke-width="4.0" x1="24.0" x2="24.0" y1="32.0" y2="-32.0" /><line stroke="black" stroke-linecap="round" stroke-width="4.0" x1="64.0" x2="32.0" y1="32.0" y2="32.0" /><line stroke="black" stroke-linecap="round" stroke-width="4.0" x1="64.0" x2="64.0" y1="48.0" y2="32.0" /><line stroke="black" stroke-linecap="round" stroke-width="4.0" x1="64.0" x2="64.0" y1="-48.0" y2="-48.0" /><line stroke="black" stroke-linecap="round" stroke-width="4.0" x1="32.0" x2="32.0" y1="32.0" y2="-32.0" /><line stroke="black" stroke-linecap="round" stroke-width="4.0" x1="48.0" x2="32.0" y1="-28.0" y2="-32.0" /><line stroke="black" stroke-linecap="round" stroke-width="4.0" x1="48.0" x2="48.0" y1="-36.0" y2="-28.0" /><line stroke="black" stroke-linecap="round" stroke-width="4.0" x1="32.0" x2="48.0" y1="-32.0" y2="-36.0" /><line stroke="black" stroke-linecap="round" stroke-width="4.0" x1="64.0" x2="48.0" y1="-32.0" y2="-32.0" /><line stroke="black" stroke-linecap="round" stroke-width="4.0" x1="64.0" x2="64.0" y1="64.0" y2="48.0" /><line stroke="black" stroke-linecap="round" stroke-width="4.0" x1="64.0" x2="64.0" y1="64.0" y2="48.0" /><line stroke="black" stroke-linecap="round" stroke-width="4.0" x1="0.0" x2="24.0" y1="0.0" y2="0.0" /><line stroke="black" stroke-linecap="round" stroke-width="4.0" x1="64.0" x2="64.0" y1="-64.0" y2="-48.0" /></g><g transform="translate(304.0,512.0)"><line stroke="black" stroke-linecap="round" stroke-width="4.0" x1="64.0" x2="64.0" y1="-32.0" y2="-48.0" /><line stroke="black" stroke-linecap="round" stroke-width="4.0" x1="24.0" x2="24.0" y1="32.0" y2="-32.0" /><line stroke="black" stroke-linecap="round" stroke-width="4.0" x1="64.0" x2="32.0" y1="-32.0" y2="-32.0" /><line stroke="black" stroke-linecap="round" stroke-width="4.0" x1="64.0" x2="64.0" y1="48.0" y2="32.0" /><line stroke="black" stroke-linecap="round" stroke-width="4.0" x1="64.0" x2="64.0" y1="-48.0" y2="-48.0" /><line stroke="black" stroke-linecap="round" stroke-width="4.0" x1="32.0" x2="32.0" y1="32.0" y2="-32.0" /><line stroke="black" stroke-linecap="round" stroke-width="4.0" x1="48.0" x2="64.0" y1="28.0" y2="32.0" /><line stroke="black" stroke-linecap="round" stroke-width="4.0" x1="48.0" x2="48.0" y1="36.0" y2="28.0" /><line stroke="black" stroke-linecap="round" stroke-width="4.0" x1="64.0" x2="48.0" y1="32.0" y2="36.0" /><line stroke="black" stroke-linecap="round" stroke-width="4.0" x1="32.0" x2="48.0" y1="32.0" y2="32.0" /><line stroke="black" stroke-linecap="round" stroke-width="4.0" x1="64.0" x2="64.0" y1="64.0" y2="48.0" /><line stroke="black" stroke-linecap="round" stroke-width="4.0" x1="64.0" x2="64.0" y1="64.0" y2="48.0" /><line stroke="black" stroke-linecap="round" stroke-width="4.0" x1="0.0" x2="24.0" y1="0.0" y2="0.0" /><line stroke="black" stroke-linecap="round" stroke-width="4.0" x1="64.0" x2="64.0" y1="-64.0" y2="-48.0" /></g><g transform="translate(704.0,128.0)"><line stroke="black" stroke-linecap="round" stroke-width="4.0" x1="64.0" x2="64.0" y1="-32.0" y2="-48.0" /><line stroke="black" stroke-linecap="round" stroke-width="4.0" x1="24.0" x2="24.0" y1="32.0" y2="-32.0" /><line stroke="black" stroke-linecap="round" stroke-width="4.0" x1="64.0" x2="32.0" y1="32.0" y2="32.0" /><line stroke="black" stroke-linecap="round" stroke-width="4.0" x1="64.0" x2="64.0" y1="48.0" y2="32.0" /><line stroke="black" stroke-linecap="round" stroke-width="4.0" x1="64.0" x2="64.0" y1="-48.0" y2="-48.0" /><line stroke="black" stroke-linecap="round" stroke-width="4.0" x1="32.0" x2="32.0" y1="32.0" y2="-32.0" /><line stroke="black" stroke-linecap="round" stroke-width="4.0" x1="48.0" x2="32.0" y1="-28.0" y2="-32.0" /><line stroke="black" stroke-linecap="round" stroke-width="4.0" x1="48.0" x2="48.0" y1="-36.0" y2="-28.0" /><line stroke="black" stroke-linecap="round" stroke-width="4.0" x1="32.0" x2="48.0" y1="-32.0" y2="-36.0" /><line stroke="black" stroke-linecap="round" stroke-width="4.0" x1="64.0" x2="48.0" y1="-32.0" y2="-32.0" /><line stroke="black" stroke-linecap="round" stroke-width="4.0" x1="64.0" x2="64.0" y1="64.0" y2="48.0" /><line stroke="black" stroke-linecap="round" stroke-width="4.0" x1="64.0" x2="64.0" y1="64.0" y2="48.0" /><line stroke="black" stroke-linecap="round" stroke-width="4.0" x1="0.0" x2="24.0" y1="0.0" y2="0.0" /><line stroke="black" stroke-linecap="round" stroke-width="4.0" x1="64.0" x2="64.0" y1="-64.0" y2="-48.0" /></g><g transform="translate(704.0,512.0)"><line stroke="black" stroke-linecap="round" stroke-width="4.0" x1="64.0" x2="64.0" y1="-32.0" y2="-48.0" /><line stroke="black" stroke-linecap="round" stroke-width="4.0" x1="24.0" x2="24.0" y1="32.0" y2="-32.0" /><line stroke="black" stroke-linecap="round" stroke-width="4.0" x1="64.0" x2="32.0" y1="-32.0" y2="-32.0" /><line stroke="black" stroke-linecap="round" stroke-width="4.0" x1="64.0" x2="64.0" y1="48.0" y2="32.0" /><line stroke="black" stroke-linecap="round" stroke-width="4.0" x1="64.0" x2="64.0" y1="-48.0" y2="-48.0" /><line stroke="black" stroke-linecap="round" stroke-width="4.0" x1="32.0" x2="32.0" y1="32.0" y2="-32.0" /><line stroke="black" stroke-linecap="round" stroke-width="4.0" x1="48.0" x2="64.0" y1="28.0" y2="32.0" /><line stroke="black" stroke-linecap="round" stroke-width="4.0" x1="48.0" x2="48.0" y1="36.0" y2="28.0" /><line stroke="black" stroke-linecap="round" stroke-width="4.0" x1="64.0" x2="48.0" y1="32.0" y2="36.0" /><line stroke="black" stroke-linecap="round" stroke-width="4.0" x1="32.0" x2="48.0" y1="32.0" y2="32.0" /><line stroke="black" stroke-linecap="round" stroke-width="4.0" x1="64.0" x2="64.0" y1="64.0" y2="48.0" /><line stroke="black" stroke-linecap="round" stroke-width="4.0" x1="64.0" x2="64.0" y1="64.0" y2="48.0" /><line stroke="black" stroke-linecap="round" stroke-width="4.0" x1="0.0" x2="24.0" y1="0.0" y2="0.0" /><line stroke="black" stroke-linecap="round" stroke-width="4.0" x1="64.0" x2="64.0" y1="-64.0" y2="-48.0" /></g><g transform="translate(240.0,512.0) scale(-1,1)"><line stroke="black" stroke-linecap="round" stroke-width="4.0" x1="64.0" x2="64.0" y1="-32.0" y2="-48.0" /><line stroke="black" stroke-linecap="round" stroke-width="4.0" x1="24.0" x2="24.0" y1="32.0" y2="-32.0" /><line stroke="black" stroke-linecap="round" stroke-width="4.0" x1="64.0" x2="32.0" y1="-32.0" y2="-32.0" /><line stroke="black" stroke-linecap="round" stroke-width="4.0" x1="64.0" x2="64.0" y1="48.0" y2="32.0" /><line stroke="black" stroke-linecap="round" stroke-width="4.0" x1="64.0" x2="64.0" y1="-48.0" y2="-48.0" /><line stroke="black" stroke-linecap="round" stroke-width="4.0" x1="32.0" x2="32.0" y1="32.0" y2="-32.0" /><line stroke="black" stroke-linecap="round" stroke-width="4.0" x1="48.0" x2="64.0" y1="28.0" y2="32.0" /><line stroke="black" stroke-linecap="round" stroke-width="4.0" x1="48.0" x2="48.0" y1="36.0" y2="28.0" /><line stroke="black" stroke-linecap="round" stroke-width="4.0" x1="64.0" x2="48.0" y1="32.0" y2="36.0" /><line stroke="black" stroke-linecap="round" stroke-width="4.0" x1="32.0" x2="48.0" y1="32.0" y2="32.0" /><line stroke="black" stroke-linecap="round" stroke-width="4.0" x1="64.0" x2="64.0" y1="64.0" y2="48.0" /><line stroke="black" stroke-linecap="round" stroke-width="4.0" x1="64.0" x2="64.0" y1="64.0" y2="48.0" /><line stroke="black" stroke-linecap="round" stroke-width="4.0" x1="0.0" x2="24.0" y1="0.0" y2="0.0" /><line stroke="black" stroke-linecap="round" stroke-width="4.0" x1="64.0" x2="64.0" y1="-64.0" y2="-48.0" /></g><g transform="translate(96.0,336.0)"><line stroke="black" stroke-linecap="round" stroke-width="4.0" x1="0.0" x2="-8.0" y1="0.0" y2="0.0" /><circle cx="-16.0" cy="0.0" fill="none" r="8.0" stroke="black" stroke-width="4.0" /></g><g transform="translate(448.0,336.0) rotate(180)"><line stroke="black" stroke-linecap="round" stroke-width="4.0" x1="0.0" x2="-8.0" y1="0.0" y2="0.0" /><circle cx="-16.0" cy="0.0" fill="none" r="8.0" stroke="black" stroke-width="4.0" /></g><g transform="translate(784.0,272.0) rotate(180)"><line stroke="black" stroke-linecap="round" stroke-width="4.0" x1="0.0" x2="-8.0" y1="0.0" y2="0.0" /><circle cx="-16.0" cy="0.0" fill="none" r="8.0" stroke="black" stroke-width="4.0" /></g><g transform="translate(-32.0,304.0) rotate(270)"><line stroke="black" stroke-linecap="round" stroke-width="4.0" x1="0.0" x2="-8.0" y1="0.0" y2="0.0" /><circle cx="-16.0" cy="0.0" fill="none" r="8.0" stroke="black" stroke-width="4.0" /></g><g transform="translate(112.0,336.0)"><line stroke="black" stroke-linecap="round" stroke-width="4.0" x1="64.0" x2="64.0" y1="-32.0" y2="-48.0" /><line stroke="black" stroke-linecap="round" stroke-width="4.0" x1="24.0" x2="24.0" y1="32.0" y2="-32.0" /><line stroke="black" stroke-linecap="round" stroke-width="4.0" x1="64.0" x2="32.0" y1="32.0" y2="32.0" /><line stroke="black" stroke-linecap="round" stroke-width="4.0" x1="64.0" x2="64.0" y1="48.0" y2="32.0" /><line stroke="black" stroke-linecap="round" stroke-width="4.0" x1="64.0" x2="64.0" y1="-48.0" y2="-48.0" /><line stroke="black" stroke-linecap="round" stroke-width="4.0" x1="32.0" x2="32.0" y1="32.0" y2="-32.0" /><line stroke="black" stroke-linecap="round" stroke-width="4.0" x1="48.0" x2="32.0" y1="-28.0" y2="-32.0" /><line stroke="black" stroke-linecap="round" stroke-width="4.0" x1="48.0" x2="48.0" y1="-36.0" y2="-28.0" /><line stroke="black" stroke-linecap="round" stroke-width="4.0" x1="32.0" x2="48.0" y1="-32.0" y2="-36.0" /><line stroke="black" stroke-linecap="round" stroke-width="4.0" x1="64.0" x2="48.0" y1="-32.0" y2="-32.0" /><line stroke="black" stroke-linecap="round" stroke-width="4.0" x1="64.0" x2="64.0" y1="64.0" y2="48.0" /><line stroke="black" stroke-linecap="round" stroke-width="4.0" x1="64.0" x2="64.0" y1="64.0" y2="48.0" /><line stroke="black" stroke-linecap="round" stroke-width="4.0" x1="0.0" x2="24.0" y1="0.0" y2="0.0" /><line stroke="black" stroke-linecap="round" stroke-width="4.0" x1="64.0" x2="64.0" y1="-64.0" y2="-48.0" /></g><g transform="translate(432.0,336.0) scale(-1,1)"><line stroke="black" stroke-linecap="round" stroke-width="4.0" x1="64.0" x2="64.0" y1="-32.0" y2="-48.0" /><line stroke="black" stroke-linecap="round" stroke-width="4.0" x1="24.0" x2="24.0" y1="32.0" y2="-32.0" /><line stroke="black" stroke-linecap="round" stroke-width="4.0" x1="64.0" x2="32.0" y1="32.0" y2="32.0" /><line stroke="black" stroke-linecap="round" stroke-width="4.0" x1="64.0" x2="64.0" y1="48.0" y2="32.0" /><line stroke="black" stroke-linecap="round" stroke-width="4.0" x1="64.0" x2="64.0" y1="-48.0" y2="-48.0" /><line stroke="black" stroke-linecap="round" stroke-width="4.0" x1="32.0" x2="32.0" y1="32.0" y2="-32.0" /><line stroke="black" stroke-linecap="round" stroke-width="4.0" x1="48.0" x2="32.0" y1="-28.0" y2="-32.0" /><line stroke="black" stroke-linecap="round" stroke-width="4.0" x1="48.0" x2="48.0" y1="-36.0" y2="-28.0" /><line stroke="black" stroke-linecap="round" stroke-width="4.0" x1="32.0" x2="48.0" y1="-32.0" y2="-36.0" /><line stroke="black" stroke-linecap="round" stroke-width="4.0" x1="64.0" x2="48.0" y1="-32.0" y2="-32.0" /><line stroke="black" stroke-linecap="round" stroke-width="4.0" x1="64.0" x2="64.0" y1="64.0" y2="48.0" /><line stroke="black" stroke-linecap="round" stroke-width="4.0" x1="64.0" x2="64.0" y1="64.0" y2="48.0" /><line stroke="black" stroke-linecap="round" stroke-width="4.0" x1="0.0" x2="24.0" y1="0.0" y2="0.0" /><line stroke="black" stroke-linecap="round" stroke-width="4.0" x1="64.0" x2="64.0" y1="-64.0" y2="-48.0" /></g><text font-family="Arial" font-size="22.0px" text-anchor="start" x="184.0" y="336.0">M1</text><text font-family="Arial" font-size="22.0px" text-anchor="start" x="328.0" y="336.0">M2</text><text font-family="Arial" font-size="22.0px" text-anchor="start" x="560.0" y="344.0">Cc</text><text font-family="Arial" font-size="22.0px" text-anchor="start" x="664.0" y="344.0">Rc</text><text font-family="Arial" font-size="22.0px" text-anchor="start" x="136.0" y="512.0">M3</text><text font-family="Arial" font-size="22.0px" text-anchor="start" x="376.0" y="512.0">M4</text><text font-family="Arial" font-size="22.0px" text-anchor="start" x="200.0" y="80.0">M6</text><text font-family="Arial" font-size="22.0px" text-anchor="start" x="16.0" y="80.0">M5</text><text font-family="Arial" font-size="22.0px" text-anchor="start" x="696.0" y="80.0">M7</text><text font-family="Arial" font-size="22.0px" text-anchor="start" x="688.0" y="480.0">M8</text><text font-family="Arial" font-size="22.0px" text-anchor="start" x="824.0" y="272.0">OUT</text><text font-family="Arial" font-size="22.0px" text-anchor="start" x="440.0" y="312.0">IN_P</text><text font-family="Arial" font-size="22.0px" text-anchor="start" x="56.0" y="312.0">IN_N</text><text font-family="Arial" font-size="22.0px" text-anchor="start" x="-48.0" y="352.0">I_REF</text></svg>